<?xml version="1.0" encoding="UTF-8" standalone="no"?>
<svg
   version="1.1"
   id="Layer_1"
   x="0px"
   y="0px"
   width="100%"
   viewBox="0 0 836 833"
   enable-background="new 0 0 836 833"
   xml:space="preserve"
   sodipodi:docname="yap.svg"
   inkscape:version="1.4.2 (ebf0e94, 2025-05-08)"
   xmlns:inkscape="http://www.inkscape.org/namespaces/inkscape"
   xmlns:sodipodi="http://sodipodi.sourceforge.net/DTD/sodipodi-0.dtd"
   xmlns="http://www.w3.org/2000/svg"
   xmlns:svg="http://www.w3.org/2000/svg"><defs
   id="defs412" /><sodipodi:namedview
   id="namedview412"
   pagecolor="#ffffff"
   bordercolor="#000000"
   borderopacity="0.25"
   inkscape:showpageshadow="2"
   inkscape:pageopacity="0.0"
   inkscape:pagecheckerboard="0"
   inkscape:deskcolor="#d1d1d1"
   inkscape:zoom="0.28193645"
   inkscape:cx="746.62215"
   inkscape:cy="266.01739"
   inkscape:window-width="1920"
   inkscape:window-height="1011"
   inkscape:window-x="0"
   inkscape:window-y="0"
   inkscape:window-maximized="1"
   inkscape:current-layer="Layer_1" />

<path
   fill="#0b0c0a"
   opacity="1"
   stroke="none"
   d="m 363.55585,0.999999 c 6.23773,0.687589 12.01788,1.528238 17.82712,2.036899 28.75726,2.517987 56.69262,8.821244 84.04577,17.922184 23.60324,7.853248 46.36237,17.574865 67.97525,29.958036 32.09644,18.389721 60.78839,41.042919 86.01831,68.095892 1.42926,1.53257 3.18769,2.75819 5.13031,4.60705 0.37982,0.78974 0.42212,1.09911 0.29663,1.63798 -0.72784,0.73635 -1.28796,1.24321 -2.19659,1.78191 -1.45978,0.35489 -2.57092,0.67795 -3.96112,0.81794 -10.17432,-8.85602 -20.06958,-17.52896 -30.16528,-26.49487 -6.305,-4.322287 -12.40949,-8.351622 -18.69703,-12.665884 -6.93567,-4.476852 -13.68835,-8.668793 -20.65338,-13.14547 -8.20117,-5.612419 -16.18994,-10.940101 -24.39819,-16.540016 -9.30811,-5.213737 -18.3967,-10.155239 -27.62818,-15.3116 -0.46679,-0.299812 -0.79071,-0.384758 -1.33184,-0.63401 -0.39862,-0.172104 -0.58002,-0.179913 -0.99234,-0.451263 -12.7168,-4.817196 -25.20267,-9.370858 -37.98929,-14.158123 -4.32758,-1.42198 -8.30261,-2.844275 -12.39194,-3.751069 -9.11667,-2.021574 -18.29037,-3.785635 -27.85367,-5.703044 -9.77945,-1.786532 -19.14609,-3.52464 -28.8605,-5.458678 -10.81058,-1.290239 -21.27338,-2.384548 -32.11521,-3.616314 -2.51287,-0.290842 -4.64672,-0.444228 -6.93878,-0.705663 -0.15817,-0.10805 -0.49817,0.068533 -0.89383,-0.013987 -0.92956,-0.033521 -1.4635,0.015479 -2.40054,-0.053299 -2.65274,-0.037155 -4.90231,0.043466 -7.60651,0.053793 -4.22659,0.218951 -7.99853,0.508197 -12.2124,0.721659 -13.14899,2.026289 -25.85602,4.128362 -38.9436,6.212309 -9.79535,2.956316 -19.21018,5.930761 -28.965,8.898876 -0.69821,0.245226 -1.05646,0.496782 -1.63476,0.653366 -0.55597,-0.04887 -0.82422,0.110857 -1.35445,0.382883 -0.6664,0.257616 -1.0031,0.516558 -1.43297,0.754026 -0.0932,-0.02147 -0.21814,0.123213 -0.5321,0.127814 -0.83664,0.305845 -1.35932,0.60709 -1.83573,0.934639 0.0463,0.0263 0.0226,-0.07746 -0.35156,-0.05166 -14.10899,6.390049 -27.84384,12.754296 -41.93875,19.167698 -19.27727,10.577313 -38.19446,21.105469 -57.11166,31.633621 0.17944,0.428055 0.35887,0.856118 0.53831,1.28418 2.7186,-0.226097 5.43796,-0.631813 8.15556,-0.620399 2.10373,0.0088 3.78341,0.758636 1.39536,3.327308 -1.05921,0.534401 -1.80771,0.969055 -2.88611,1.371559 -0.71416,0.158348 -1.0984,0.348847 -1.881,0.434906 -19.8737,1.866471 -36.78073,9.749421 -53.29998,22.204212 6.41809,1.11922 11.31892,1.97386 17.34772,3.0252 -10.53679,7.94693 -22.8356,4.96444 -33.542319,10.25536 4.790398,6.56205 9.351921,12.81058 13.913449,19.05913 -0.30821,0.24782 -0.61642,0.49565 -0.92463,0.74347 -0.901142,-0.63591 -1.80228,-1.27182 -2.879848,-2.21389 -6.301125,-6.25345 -12.674217,-11.80471 -21.781021,-13.68679 -3.290405,-0.92218 -6.309296,-2.76391 -9.07711,-2.44262 -10.002606,1.1611 -20.018769,2.61773 -29.829899,4.84385 -4.98069,1.13012 -5.274912,4.57073 -1.667763,8.35047 7.185863,7.5297 16.138721,13.55925 20.454262,24.98465 -3.096566,0 -5.870865,0 -8.649006,0 2.351612,4.54689 4.711136,9.10909 7.076835,14.032 4.08424,9.03203 8.162304,17.70336 12.283738,26.71286 8.667366,16.59233 22.309105,24.5717 40.579052,24.49097 4.24256,-0.0187 8.48034,-1.12044 12.8433,-1.74133 -1.72847,-4.08953 -3.657,-6.86152 -4.01787,-9.82445 -1.36654,-11.21985 -2.25768,-22.49866 -3.26489,-33.76093 -1.17973,-13.1914 -0.20096,-25.67817 10.95507,-35.09425 6.34365,-5.35425 12.4442,-10.99652 18.95999,-16.59395 0.97709,-0.50343 1.6484,-0.92201 2.31971,-1.34059 0.4012,0.35143 0.80239,0.70285 1.20359,1.05427 -2.24029,2.81785 -4.28172,5.82578 -6.75875,8.41733 -6.98804,7.31111 -14.89196,14.32218 -16.33328,24.83628 -1.13486,8.27864 -0.31298,16.8255 -0.46322,25.69398 0.0109,3.14262 0.12485,5.84448 0.17681,8.93381 1.11726,4.58533 2.29648,8.78317 3.49563,13.31116 1.3414,2.04115 2.66287,3.75218 4.02034,5.40896 0.036,-0.0543 -0.0764,0.0115 0.077,0.33757 1.76962,0.58029 3.38591,0.83454 5.43024,1.21819 4.81068,-0.17054 9.19333,-0.47048 13.82745,-0.71289 0.4074,-0.0151 0.56331,-0.0877 1.06487,-0.12825 1.44978,-0.29494 2.55392,-0.62189 4.04793,-0.91622 16.34698,-4.33536 31.57565,-10.1615 44.11532,-21.51501 -12.95247,1.52247 -25.74638,6.68992 -38.6411,-0.72321 -0.19702,-3.57167 -0.19702,-3.57167 5.59177,-3.50632 11.78203,0.89525 21.62941,-3.0642 30.57494,-9.63114 13.20408,-9.69317 22.78584,-22.64785 31.97819,-35.92511 2.54958,-3.68256 4.95718,-7.4634 8.21559,-12.38613 -10.43744,2.94512 -19.32145,5.5669 -28.29051,7.85539 -1.30577,0.33318 -3.01787,-0.9262 -4.54195,-1.44868 0.83527,-1.18663 1.42228,-2.75192 2.55056,-3.49162 3.99896,-2.62175 8.1828,-4.96154 12.66149,-7.47829 7.71229,-3.96026 15.05961,-7.8504 22.76069,-11.7624 13.55729,-5.26115 26.76086,-10.50044 40.15936,-15.701969 0.19498,0.03775 0.49304,-0.224709 0.82495,-0.210495 0.91068,-0.276459 1.48944,-0.567116 2.24448,-0.816818 0.17627,0.04095 0.43164,-0.2155 0.78525,-0.200219 0.9779,-0.27079 1.60217,-0.556861 2.34112,-0.791153 0.11468,0.05178 0.28928,-0.129402 0.55316,-0.103248 0.41638,-0.06341 0.56882,-0.152954 1.10358,-0.21901 10.13705,-2.312736 19.89181,-4.648956 30.05115,-6.9328 12.46878,-1.63076 24.53299,-3.313911 37.02853,-4.920212 2.16659,-0.09573 3.90179,-0.268325 5.91855,-0.381729 0.60165,-0.124588 0.92184,-0.308349 1.64663,-0.413254 7.74662,-0.31269 15.0886,-0.704238 22.81281,-0.865844 10.94879,2.199745 21.51532,4.169533 32.38315,6.330299 3.62256,1.794174 8.62356,0.693215 10.63449,7.366814 -6.02713,-0.729584 -10.93753,-1.32399 -16.30441,-2.02842 -9.47766,0.253998 -18.49884,0.618019 -27.95331,0.910569 -13.15234,2.010894 -25.87146,4.093261 -38.98239,6.141519 -15.12775,4.83806 -29.86365,9.71024 -44.98386,14.61944 -10.38028,4.60144 -20.37619,9.16586 -30.37213,13.73027 0.15018,0.33881 0.30035,0.67762 0.45053,1.01644 1.4538,0.33731 2.90759,0.67463 5.47959,1.2714 -5.44062,3.75802 -10.14509,6.743 -14.54685,10.12236 -4.40839,3.38445 -8.39845,7.23916 -9.44811,13.78814 13.46422,-1.14258 25.70519,-4.6467 38.17614,-8.80429 8.60489,-2.09102 16.82974,-4.19565 24.88278,-6.25631 -3.89462,-1.75306 -7.91303,-3.56186 -11.93143,-5.37065 0.20008,-0.79233 0.40012,-1.58467 0.60019,-2.377 3.81976,0.2139 7.66895,0.20281 11.45194,0.69771 4.91638,0.64319 9.78015,1.68862 14.91867,2.73007 0.82824,0.12836 1.40439,0.0876 2.19964,0.28449 0.64228,0.2431 1.06546,0.24846 1.89655,0.39215 10.80157,0.38763 21.19516,0.63695 32.00372,0.94299 10.82022,-2.62574 21.2255,-5.30822 31.98023,-8.00088 15.94223,-6.82029 28.48007,-17.45551 38.80307,-31.517228 1.16372,1.463227 1.93917,2.438238 2.44662,3.635638 -2.55279,4.01741 -4.83761,7.81244 -6.59949,10.73888 10.74741,3.6613 21.29715,7.25529 32.07819,11.07535 7.45898,4.90607 14.68668,9.58607 22.05789,14.56794 5.37631,5.76393 10.6091,11.22595 15.85581,17.08748 0.52984,1.48448 1.04583,2.56944 1.48324,3.91877 -0.20199,0.4007 -0.32538,0.53702 -0.75247,0.67023 -0.90811,-0.0567 -1.51251,-0.11027 -2.37271,-0.40576 -6.59976,-5.414 -12.9437,-10.58608 -19.37531,-16.08594 -13.67691,-11.81482 -39.68805,-20.56392 -50.34619,-17.1415 1.86344,1.40451 3.66056,2.75902 5.45767,4.11355 -0.0877,0.39061 -0.17541,0.7812 -0.26312,1.17181 -6.97867,-0.5218 -13.95737,-1.04361 -20.93603,-1.56541 -0.0933,0.50235 -0.18659,1.0047 -0.27988,1.50703 22.47482,5.36087 40.24771,17.04016 51.23099,37.97336 -0.0326,0.17375 0.22567,0.41528 0.2185,0.74719 0.24158,0.67943 0.49039,1.02698 0.68354,1.74384 0.41491,2.11088 1.24084,3.84401 1.28225,5.59569 0.0867,3.66415 0.22064,7.43853 -0.55011,10.97467 -0.56759,2.60408 -2.87991,3.44001 -5.35473,0.86781 0.14233,-6.48523 1.7081,-12.96839 -2.99124,-17.95912 -5.07987,-5.39489 -10.7302,-10.25258 -16.39036,-15.58736 -12.47863,-6.79233 -24.92803,-12.55899 -39.72418,-12.25798 4.5199,4.02834 8.56571,7.56403 12.52414,11.19493 1.69925,1.55867 1.7186,3.11173 -0.92834,4.15056 -10.10947,-2.4205 -19.85346,-4.74008 -30.01886,-7.19725 -7.10874,-0.79057 -13.79602,-1.44357 -20.79248,-2.26076 -1.47223,-0.19813 -2.63532,-0.23207 -4.23819,-0.36867 -3.14453,-0.13206 -5.84931,-0.16148 -9,-0.31048 -12.34906,-1.14688 -24.13019,-0.50876 -36.13672,2.42648 -1.41501,0.23924 -2.43356,0.51711 -3.8057,0.74344 -0.99588,0.20422 -1.63824,0.45998 -2.656,0.64069 -8.59455,1.95759 -16.81369,3.99022 -25.43091,6.04498 -3.45877,1.06 -6.47003,2.28616 -9.58838,3.10399 -15.60461,4.09257 -31.55629,7.10148 -43.70694,19.32528 -4.39079,4.41723 -10.26257,7.32514 -15.02153,11.42859 -2.54632,2.19559 -4.16318,5.46914 -6.19948,8.25621 0.33831,0.36667 0.67662,0.73334 1.01494,1.09999 17.98946,-1.0207 35.97891,-2.04141 54.4156,-2.97409 3.48347,0.053 6.51969,0.0179 9.9914,0.0891 4.45291,0.24963 8.47034,0.3929 12.86703,0.63809 1.16071,0.0882 1.94217,0.0744 2.95832,0.14809 0.39477,0.0402 0.55493,-0.007 1.15109,0.0401 2.80749,0.18776 5.17892,0.28112 7.91067,0.55127 12.45484,1.63719 24.54935,3.0976 36.64386,4.558 0.14118,-0.21017 0.28238,-0.42035 0.42359,-0.63052 -8.00549,-2.95664 -16.01099,-5.91327 -24.01648,-8.86991 0.0866,-0.27552 0.17316,-0.55105 0.2597,-0.82658 3.79218,0.31558 7.58432,0.63117 11.69269,1.08514 0.77188,0.12549 1.22754,0.1126 1.92084,0.22266 0.41107,0.0811 0.58447,0.0392 1.09692,0.18073 12.29242,2.20697 22.49732,7.93911 32.29419,15.35084 2.05805,1.38645 4.01874,2.34104 5.59299,3.73276 6.30011,5.56966 12.48022,11.27501 18.81815,17.23738 4.0415,5.04707 7.9696,9.78691 11.9663,14.84808 1.04014,1.50138 2.01169,2.6814 3.05255,4.1687 1.06653,1.69552 2.06373,3.08373 3.13361,4.79993 6.15595,9.82819 12.2392,19.3284 18.41449,29.17627 6.98148,11.06629 13.87094,21.78494 20.82105,32.82608 6.30755,11.42651 12.55444,22.53058 18.85907,33.97403 4.33236,8.45676 8.60705,16.5741 12.93005,25.03436 5.40125,10.78287 10.75418,21.22278 16.19189,31.99048 6.23093,12.12021 12.37714,23.91266 18.56061,36.05939 8.34143,15.17621 16.64557,29.99811 24.9914,45.16254 1.22821,2.34115 2.32318,4.40124 3.61608,6.32855 8.9773,13.38214 16.19959,27.45587 17.93317,43.81653 1.52521,14.39404 0.55243,28.21484 -8.15686,40.56372 -16.11853,22.85455 -36.7655,40.51312 -61.67508,53.70892 -3.52176,-1.05096 -6.67279,-2.0628 -9.61032,-3.35705 1.89694,-0.98566 3.73651,-1.44983 5.23904,-2.43036 11.43061,-7.46033 22.90903,-14.85761 34.12266,-22.63495 4.26336,-2.95691 7.87078,-6.85944 11.62719,-10.1977 -13.24664,-1.07623 -25.95233,-2.10852 -39.00543,-3.169 0,4.75238 0.28354,9.07849 -0.0526,13.3559 -1.05329,13.40209 -9.81275,23.80578 -22.15256,25.06219 -5.97058,0.60791 -12.49338,0.0361 -18.18793,-1.79736 -10.89749,-3.50873 -21.38055,-8.30414 -32.03766,-12.56031 -8.18625,-3.26935 -8.85992,-2.84527 -9.39462,5.88929 -0.0305,0.49841 -0.0451,1.00128 -0.017,1.4992 0.66107,11.70563 -3.27395,22.2497 -8.22137,32.53632 -0.94678,1.96844 -1.93143,3.91864 -2.89862,5.87732 0.32931,0.36828 0.65866,0.73657 0.98797,1.10492 10.98951,-4.23804 22.0611,-8.27686 32.94727,-12.76545 13.07239,-5.39007 25.98676,-11.16339 38.88028,-16.43005 -1.79987,5.18262 3.45386,4.88959 4.72369,7.3042 -1.32864,0.32575 -2.33938,0.64679 -3.70688,0.87219 -4.93307,-4.03235 -7.22311,0.33698 -10.08374,2.59302 -1.34701,1.06238 -2.49762,2.56146 -4.01553,3.18298 -3.93002,1.6092 -8.07932,2.67945 -12.02301,4.25959 -6.55545,2.6264 -13.0546,5.40258 -19.50259,8.2832 -2.5532,1.14069 -4.90632,2.72925 -7.59607,4.10589 -0.24549,-0.008 -0.73664,-0.0203 -1.03711,-0.2163 -6.8616,-2.60511 -24.52506,2.04376 -27.05963,6.65106 1.16171,1.03406 2.27282,2.02301 3.1018,3.22198 -9.77289,3.82752 -19.2637,7.44501 -28.99884,11.03119 -0.6188,8e-4 -0.86123,0.19647 -0.89544,0.58582 0.0761,0.03 0.0833,-0.13342 -0.28321,-0.1352 -1.48758,0.41297 -2.60864,0.82764 -3.94739,1.21869 -0.21771,-0.0236 -0.58352,0.21717 -0.96838,0.21436 -15.12515,4.29517 -29.86539,8.59308 -45.00287,12.86713 -13.46325,3.30871 -26.52923,6.64141 -39.98346,9.93591 -1.34317,0.29364 -2.29815,0.62549 -3.31512,0.87866 -0.062,-0.0787 -0.24939,-0.008 -0.67108,-0.0296 -3.36258,0.69672 -6.30344,1.41559 -9.47135,2.01739 -0.54068,-10e-4 -0.85434,0.11451 -1.58703,0.20069 -17.7154,1.86804 -35.01172,3.76562 -52.3911,5.65539 -0.083,-0.008 0.0742,0.0479 -0.0693,-0.14319 -0.4464,-0.35278 -0.75557,-0.36572 -1.45691,-0.37414 -14.81552,-3.08411 -29.24509,-6.0238 -43.96797,-9.1272 -0.73981,-0.15448 -1.18631,-0.14514 -1.64406,-0.10876 -0.0113,0.027 0.0419,0.002 -0.0984,-0.31983 -5.52728,-4.63226 -11.21388,-8.62207 -16.24015,-13.31854 -11.14813,-10.41675 -14.05613,-24.10858 -8.37381,-38.36066 3.30436,-5.36364 6.33319,-10.5346 9.36203,-15.70562 -0.53084,-0.29926 -1.06168,-0.59851 -1.59253,-0.89783 -3.03009,4.89435 -6.06017,9.7887 -9.36693,14.88092 -2.64969,4.17914 -5.2626,8.039 -7.34873,12.16516 -5.30222,10.48743 -6.69721,21.26794 -0.42465,31.82428 6.41675,10.79913 15.38303,18.97217 27.20797,24.33875 16.72299,7.67553 33.95315,9.87841 52.2608,7.57013 14.08307,-1.85901 27.7427,-3.70801 41.37277,-5.75403 4.81958,-0.72351 9.567,-1.92768 14.39374,-2.93616 0.0463,-0.0239 0.14795,-0.0472 0.3468,0.26819 1.64111,0.0382 3.08337,-0.23895 4.85324,-0.47302 0.75031,-0.0684 1.17297,-0.17981 1.96231,-0.25422 1.78809,-0.29004 3.20947,-0.61718 5.05347,-0.90545 13.14658,-2.13459 25.87054,-4.30799 38.98517,-6.43439 15.14258,-2.46503 29.89453,-4.97711 44.97769,-7.44305 0.76153,-0.0593 1.19186,-0.1648 1.98788,-0.23017 1.78296,-0.2937 3.20023,-0.6275 5.04285,-0.9223 7.81451,-1.04846 15.2037,-2.13593 22.94531,-3.16846 1.44647,-0.23785 2.5405,-0.5307 3.91025,-0.76587 0.50711,0.35016 0.7385,0.64264 0.86685,1.2378 -0.80087,0.75293 -1.49875,1.20318 -2.1773,1.67999 0.0193,0.0265 0.003,-0.0363 -0.38263,-0.0908 -1.87601,0.30109 -3.36673,0.65662 -5.20142,0.96747 -1.01584,0.10876 -1.68768,0.26221 -2.75162,0.36926 -15.48791,2.97016 -30.58377,5.98663 -46.05111,8.96027 -2.48966,0.52343 -4.60785,1.08972 -6.67072,1.67511 0.0553,0.0191 -0.008,-0.0793 -0.38635,-0.0959 -1.80835,0.37659 -3.23841,0.76972 -4.90186,1.13391 -0.2334,-0.0289 -0.65222,0.18518 -0.99804,0.15155 -1.43296,0.28876 -2.52009,0.61115 -3.96857,0.90912 -0.81915,0.1156 -1.27695,0.25568 -2.00433,0.35254 -0.5698,0.14636 -0.86997,0.33588 -1.30042,0.45361 -0.13028,-0.0718 -0.35678,0.1211 -0.60168,0.0701 -0.61173,-0.0473 -0.88639,0.11359 -1.22614,0.46393 -0.15726,0.0323 -0.36615,0.27606 -0.62192,0.45044 -4.80368,2.56488 -9.35159,4.95532 -14.26175,7.37195 -4.31875,1.7793 -8.2753,3.53241 -12.23184,5.28552 0.19992,0.48944 0.39984,0.97882 0.59976,1.46826 4.48938,-1.83783 8.97876,-3.67566 13.7508,-5.53149 0.62124,-0.17926 0.95981,-0.34058 1.57544,-0.47766 0.74514,-0.24988 1.21322,-0.52405 2.05554,-0.83704 4.09973,-1.43475 7.82516,-2.83069 11.89416,-4.17334 0.80332,0.0318 1.26309,0.0104 2.01383,0.11731 0.29275,0.70459 0.29455,1.2807 0.10629,1.86463 -0.19006,0.008 -0.44559,0.28973 -0.69049,0.2962 -0.59003,0.11969 -0.79776,0.35455 -0.88605,0.74005 -0.0179,0.0292 -0.011,-0.0406 -0.35962,0.0118 -7.90878,3.92761 -15.46896,7.80286 -23.02917,11.6781 0.19849,0.48206 0.39697,0.96411 0.59546,1.44617 7.69607,-3.14691 15.39215,-6.29382 23.42578,-9.50629 0.74133,-0.27917 1.14508,-0.49273 1.90283,-0.7113 2.48566,-0.89655 4.61734,-1.78815 6.70706,-2.72095 -0.0419,-0.0413 -0.003,0.0697 0.39969,0.0485 1.09467,0.60138 1.78671,1.22394 2.14585,1.9339 -6.93088,3.92462 -13.52884,7.76178 -20.12684,11.599 0.13916,0.34943 0.27829,0.69891 0.41745,1.04834 10.04746,-4.15009 20.09494,-8.30011 30.1424,-12.4502 0.30047,0.61854 0.60095,1.23707 0.9014,1.8556 -6.18155,4.09448 -12.3631,8.18896 -18.54465,12.28344 10.84955,-1.8526 19.88147,-8.97613 31.07815,-9.48565 -1.22894,1.84643 -2.66613,3.17968 -4.3027,4.19006 -3.33725,2.06024 -6.78192,3.94647 -10.45227,5.88489 -0.52576,0.15289 -0.78165,0.32538 -1.03754,0.4978 0.22229,0.12317 0.55875,0.40357 0.64569,0.34051 0.27503,-0.19989 0.45673,-0.52819 1.05317,-0.58862 8.32754,-2.09198 16.27645,-4.40216 24.2254,-6.71234 0.17285,0.29126 0.34567,0.58246 0.51852,0.87372 -3.21972,2.31048 -6.43948,4.62091 -9.65921,6.9314 0.13129,0.29248 0.26261,0.58502 0.39389,0.8775 4.37351,-1.45667 8.74698,-2.91333 13.45532,-4.32355 0.78458,0.0212 1.23429,-0.004 1.87565,0.14984 0.35772,0.23358 0.52386,0.28815 0.61651,0.7107 0.46597,1.08142 1.06766,2.45489 1.53559,2.41076 9.5682,-0.90265 19.12112,-1.96722 29.05511,-2.9472 1.1228,-0.0944 1.86762,-0.24103 2.93646,-0.34253 1.14768,-0.1706 1.97132,-0.38629 3.11301,-0.54425 0.72394,-0.0708 1.12979,-0.1994 1.86929,-0.27802 0.76703,-0.0557 1.2005,-0.16144 2.04376,-0.21515 27.72825,-3.9801 54.45002,-10.40277 80.82044,-19.88488 6.36417,1.53546 12.31366,3.02948 18.24231,4.60205 0.27594,0.0732 0.36572,0.84838 0.54224,1.29657 -21.2544,6.26245 -42.23319,13.78625 -63.82511,18.50402 -36.14929,7.8985 -72.94635,11.08405 -110.02841,10.58521 -30.11499,-0.40515 -59.48218,-5.04846 -88.51175,-13.06659 -9.41626,-2.60089 -19.64397,-2.77991 -29.52908,-3.06061 -20.87981,-0.59277 -41.96416,1.36762 -62.179,-5.94024 -15.05985,-5.44416 -27.98532,-13.8841 -36.82279,-27.56708 -8.61847,-13.34393 -7.34786,-27.56763 -2.54069,-41.71204 4.63412,-13.63525 10.44843,-26.89154 14.62741,-40.65344 4.76156,-15.68042 8.5265,-31.6806 12.23904,-47.6546 1.61698,-6.9574 1.50159,-14.04694 -1.29127,-21.02948 -12.48725,-31.22003 -24.41243,-62.67038 -37.32027,-93.71335 -4.097641,-9.85477 -10.439758,-18.81146 -16.126922,-27.94748 -1.59549,-2.56305 -4.189644,-4.93784 -6.880555,-6.3143 C 61.881466,420.12781 51.747219,406.51202 42.832222,391.82724 32.670574,375.08896 27.909117,356.49997 25.073885,337.30719 24.788935,335.37824 23.867556,333.112 22.474569,331.8465 11.518895,321.89362 4.589262,309.74692 1.371899,295.12173 1,289.97791 1,284.95581 1.376226,279.33389 c 2.571902,-7.53772 4.61902,-14.52719 7.005077,-21.39898 2.380871,-6.85686 6.503278,-13.41988 7.381924,-20.42293 1.84619,-14.7146 2.10826,-29.63094 2.905015,-44.47066 0.104877,-1.9534 -0.348765,-3.96741 -0.745169,-5.91231 -3.549106,-17.41325 -3.502438,-34.74203 2.844215,-51.47183 4.099478,-10.80622 10.482184,-21.06953 22.703926,-23.12861 9.57399,-1.61299 19.69944,0.0399 29.579552,0.25694 2.215317,0.0487 4.776916,0.92987 6.584938,0.11287 8.856323,-4.00187 15.869431,-10.44344 22.758466,-17.251583 3.9719,-3.925262 9.20471,-7.33493 14.49343,-9.020294 C 130.95088,82.14489 143.89699,75.620621 156.12157,67.576317 166.3719,60.831142 175.92119,52.913296 186.56003,46.891151 202.2661,38.00069 218.42085,29.803471 234.82381,22.267099 258.67673,11.307831 284.02905,5.599671 310.1188,3.043025 315.09811,2.555082 320.04056,1.690702 325,1.000001 328.03061,1 331.06119,1 334.81189,1.311328 339.02133,1.415105 342.51068,1.207553 346,1 c 0.75,0 1.5,0 2.88177,0.279944 C 351.67569,1.373259 353.83786,1.18663 356,1.000001 358.37057,1 360.74112,1 363.55585,0.999999 m 14.57504,240.660381 c 0.39712,0.007 0.79422,0.0137 1.19134,0.0206 -0.35858,-0.32108 -0.71716,-0.64217 -1.61584,-1.44893 -5.62494,-1.75836 -11.24988,-3.51671 -16.87482,-5.27507 -0.15249,0.5294 -0.30496,1.05881 -0.45745,1.58821 5.79296,1.57947 11.5859,3.15894 17.75677,5.1152 M 269.08072,486.06885 c 0,0 0.0151,0.0187 0.8056,0.0141 9.73041,-3.57517 21.11243,-3.50773 28.59165,-12.04779 -0.17871,-0.52396 -0.35746,-1.04792 -0.53617,-1.57187 -11.31543,2.82348 -22.63083,5.64694 -34.71591,8.56454 -2.7413,0.66446 -5.4826,1.32889 -8.70457,2.14398 -0.23789,0.23252 -0.47577,0.46503 -1.52349,0.7136 -12.60515,3.42532 -25.21028,6.85064 -37.4544,10.17788 2.33003,2.9339 4.01748,5.05869 5.70494,7.1835 -0.0466,0.52579 -0.0931,1.05158 -0.13968,1.57737 15.62964,-5.28577 31.25929,-10.57157 47.35258,-16.01065 0.30408,-0.16468 0.5026,-0.41358 0.61945,-0.74463 m 122.77176,-98.08463 c 19.91748,-0.96213 39.83493,-1.92428 61.12472,-2.95273 -1.67959,-1.7789 -2.10553,-2.62121 -2.52475,-2.61792 -19.48849,0.15354 -38.97644,0.38074 -59.40017,0.59229 -10.86161,0.32697 -21.72126,0.75717 -32.58518,0.95923 -22.0813,0.41079 -44.16485,0.699 -66.24753,1.03482 -1.33038,0.0202 -2.72671,-0.23847 -3.97503,0.0852 -1.52396,0.39511 -2.9238,1.26898 -4.37729,1.93579 0.12704,0.31189 0.25409,0.62375 0.38113,0.93561 35.57709,0 71.15418,0 107.6041,0.0277 m -99.70303,62.00333 c -4.23853,0.67233 -8.50004,1.22577 -12.71091,2.04089 -9.85361,1.90735 -19.68296,3.94022 -30.25444,5.89966 -0.7313,0.0401 -1.4626,0.0801 -2.87026,0.0815 -0.80021,0.31269 -1.60045,0.6254 -3.23431,0.93579 -15.55219,3.25141 -31.11759,6.44251 -46.63686,9.84409 -1.61592,0.35419 -2.95828,1.95648 -4.42756,2.97967 1.22984,1.65037 2.20239,3.61011 3.74083,4.88932 3.67404,3.0549 7.91258,2.35217 12.21464,1.36541 14.99799,-3.44 30.02655,-6.74661 45.64549,-10.09158 0.4993,-0.28882 0.9986,-0.57764 2.21541,-0.86642 0.71262,-0.076 1.42523,-0.15189 2.91519,-0.22477 1.12455,-0.28875 2.25373,-0.56069 3.3729,-0.86898 11.97452,-3.29856 23.94745,-6.60288 36.75607,-9.90836 14.53854,-3.57907 30.15436,-4.09845 43.43555,-15.47949 -7.49112,1.30435 -13.66803,2.28622 -19.80606,3.46994 -9.85123,1.89981 -19.67667,3.93326 -30.35568,5.93332 m -7.0907,-32.03211 c -1.14557,0.0267 -2.3187,-0.0972 -3.4318,0.10675 -4.2431,0.77768 -8.69253,1.10114 -12.62478,2.68613 -3.02353,1.21875 -5.38694,4.07517 -8.80747,6.2309 -1.73199,0.36813 -3.46399,0.73626 -5.86008,1.04803 -0.44137,0.0394 -0.88273,0.0788 -2.18212,0.081 -1.71732,0.0157 -3.43465,0.0315 -5.65125,-0.0373 -0.16849,0.01 -0.33699,0.0197 -1.42334,-0.0284 -8.03834,0.28171 -16.10384,0.25049 -24.10646,0.94425 -6.39102,0.55398 -12.80896,3.25418 -19.03017,2.74484 -9.77938,-0.80066 -16.94001,3.319 -24.80632,9.61594 6.95771,-0.58045 13.01322,-0.8552 19.00475,-1.62671 21.96152,-2.82801 43.90176,-5.8212 66.72439,-8.70947 1.80326,-0.19675 3.61026,-0.36414 5.40915,-0.59485 14.23255,-1.82547 28.46354,-3.66294 43.54477,-5.4524 2.28925,-0.32284 4.57852,-0.64569 6.86777,-0.9685 11.77466,-1.66049 23.54932,-3.32099 36.21661,-4.97602 2.44892,-0.20611 4.91669,-0.28338 7.3436,-0.63949 14.2558,-2.09192 28.50208,-4.24887 43.62851,-6.38007 17.14102,-0.33783 42.28235,-5.93536 46.61798,-10.54513 -0.74682,-0.16996 -1.35122,-0.44181 -1.94644,-0.42298 -10.27801,0.32444 -20.56302,0.53647 -30.82846,1.10144 -4.92523,0.27106 -9.8129,1.22431 -15.61639,1.86725 -11.43119,1.06931 -22.87607,2.01377 -34.28751,3.26331 -5.30975,0.58142 -10.55469,1.75497 -16.73971,2.69525 -15.02683,1.68597 -30.05369,3.37195 -45.92414,5.05075 -6.05008,0.68585 -12.10016,1.3717 -18.8259,2.02011 -0.79495,0.30563 -1.5899,0.61124 -3.26519,0.92529 M 253.23468,209.17958 c -11.67717,1.03258 -23.35432,2.06516 -35.97011,2.98648 -12.78044,2.18671 -25.56086,4.37341 -39.14393,6.50607 -1.25553,0.40003 -2.51105,0.80005 -3.9374,1.07685 0,0 -0.17616,0.11546 -1.00871,0.0826 -1.23496,0.31798 -2.47659,0.61224 -3.70386,0.95759 -13.49272,3.79679 -26.98318,7.60157 -41.21985,11.37275 -6.78249,2.38038 -13.68085,4.47741 -20.32563,7.19456 -19.514538,7.97978 -39.509419,15.07951 -56.984386,27.23232 -13.386818,9.30972 -19.845711,22.95343 -22.396285,38.73541 1.827961,-1.52078 3.272568,-3.29959 4.667075,-5.11688 9.847793,-12.83338 21.826538,-23.83762 35.696304,-31.5008 15.871605,-8.76916 33.320892,-14.68284 50.851262,-21.78775 5.55577,-1.58464 11.08741,-3.26076 16.67254,-4.73421 10.51583,-2.77427 21.06249,-5.43165 32.40939,-8.10328 15.38613,-2.43962 30.77227,-4.87924 47.01389,-7.14696 11.3997,-0.75177 22.79941,-1.50355 34.64389,-2.11165 0,0 0.43713,-0.16545 1.12787,-0.016 0.4617,-0.0738 0.9234,-0.14757 2.20831,-0.0422 1.38716,-0.11665 2.77432,-0.23332 5.06943,-0.15112 4.03073,-0.078 8.06143,-0.15591 12.98727,0.0567 7.18866,0.15825 14.37735,0.3165 21.95203,0.83241 0.47955,-0.0607 0.95914,-0.12134 1.53256,-0.13525 0,0 0.10471,-0.006 0.77634,0.34616 14.85162,1.82236 29.70322,3.64471 44.85019,5.7991 0,0 0.43042,0.10564 0.43042,0.10564 0,0 0.41931,-0.14365 1.11389,0.18232 0.50748,0.0178 1.01495,0.0355 2.17441,0.40183 4.24936,0.94992 8.49875,1.89983 12.74811,2.84973 0.0683,-0.17692 0.13659,-0.35385 0.20489,-0.53078 -2.54803,-1.62785 -5.0961,-3.2557 -8.23251,-5.25944 -0.92102,0.0704 -2.79376,5.55524 -4.0719,-0.72942 -0.95017,-2.5198 -1.9003,-5.03961 -3.02906,-8.033 -0.0457,0.0115 -1.30181,0.32753 -2.90032,0.7297 0,-1.64262 0,-2.86653 0,-3.84314 -9.47745,-5.77787 -20.08207,-5.43994 -30.93277,-6.48971 -0.16883,0.0426 -0.33765,0.0852 -1.22754,-0.13095 -1.75873,-0.13678 -3.51743,-0.27356 -5.97837,-0.62187 -6.45483,-0.0539 -12.91095,-0.0442 -19.36413,-0.17742 -8.38938,-0.1732 -16.77643,-0.46 -25.53723,-0.75036 -0.2587,0.01 -0.49553,0.0865 -1.20014,-0.0666 -0.3732,0.0595 -0.74638,0.11902 -1.96594,0.0306 m 119.44003,252.59316 c 6.89817,-8.09909 13.79633,-16.19822 21.1529,-24.83555 -5.62311,0 -10.50724,-0.49478 -15.24573,0.12464 -5.98682,0.78259 -11.85501,2.47305 -18.54395,3.80887 -7.02041,3.37207 -14.04086,6.74411 -21.70456,10.34027 -8.79888,7.24618 -17.59777,14.49234 -26.99493,22.02768 -11.85175,10.57531 -20.37512,23.79196 -29.6561,37.28332 -16.34622,22.69879 -31.07927,46.20081 -37.51826,74.20276 1.22795,0.18341 1.87906,0.24457 2.51404,0.38086 11.68806,2.5097 21.02778,-0.68548 28.96925,-10.03454 5.00705,-5.8946 10.79397,-5.21827 17.30997,-0.78504 5.80239,3.94769 11.14831,9.21936 19.60842,8.52374 0.27643,-0.21948 0.55286,-0.43902 1.37485,-0.59057 0.35575,-0.0808 0.71149,-0.1615 1.66474,-0.2425 0.47882,-0.31848 0.95764,-0.63696 1.88382,-1.01251 0,0 0.39996,-0.20837 1.08526,-0.34753 11.46964,-4.24146 22.93924,-8.48297 35.33411,-12.61853 7.08603,0.82232 14.17206,1.64465 21.45785,2.49017 4.36014,-3.43378 9.49427,-7.47717 15.30573,-11.73511 2.53757,-1.13232 5.06933,-2.27783 7.61386,-3.39428 5.43915,-2.38654 10.83157,-4.81946 13.40652,-11.52014 4.61829,-4.93616 9.22599,-9.88227 13.86002,-14.80366 1.88422,-2.00109 3.82568,-3.94824 6.3862,-6.03765 4.70157,-3.98096 9.40314,-7.96186 14.69916,-12.24808 4.48648,-4.57642 8.97296,-9.15283 14.04043,-14.02719 3.79953,-4.23316 7.59909,-8.46628 11.98243,-13.00223 3.46606,-4.23074 6.93209,-8.46149 11.06814,-12.80432 4.11466,-5.36936 8.14923,-10.80252 12.36505,-16.09122 4.81113,-6.03552 6.01749,-11.87927 -0.0455,-17.89334 -1.00915,-1.00107 -1.3121,-2.67984 -2.08722,-3.95697 -3.9563,-6.51868 -7.87323,-13.06503 -12.0274,-19.45645 -0.7591,-1.16794 -2.63892,-2.46631 -3.85468,-2.33594 -6.72378,0.72098 -13.40216,1.86569 -20.86487,2.9346 -5.07321,1.60733 -10.14642,3.21463 -15.98257,4.86786 -4.41461,1.97367 -8.82925,3.94733 -13.97028,6.03613 -4.42938,2.61399 -8.85876,5.22797 -13.98202,7.97339 -5.77896,4.65784 -11.55789,9.31568 -17.93299,14.26602 -6.12121,6.90226 -12.24243,13.80454 -18.95465,21.03428 -5.48016,7.52368 -10.96035,15.04736 -17.03759,22.91638 -7.4841,12.56918 -14.9682,25.13839 -23.01914,38.13852 -0.86044,1.6203 -1.72088,3.2406 -2.58133,4.8609 -0.57086,-0.18854 -1.14172,-0.37702 -1.71258,-0.56555 1.12417,-4.19031 2.24832,-8.38056 3.86319,-12.99982 1.96133,-4.0058 3.69619,-8.14319 5.9302,-11.99066 4.9718,-8.56247 10.19333,-16.97992 15.8631,-25.85938 4.80075,-6.89078 9.6015,-13.78158 14.97711,-21.02163 M 124.95266,495.7818 c 5.35685,14.07373 10.71371,28.14743 16.03666,42.97616 6.41664,18.52619 14.48454,36.56745 16.30734,56.67395 6.53497,-11.83227 15.52734,-18.87304 28.89938,-16.8446 -4.22317,-6.83044 -8.64035,-12.87274 -11.90356,-19.48456 -6.54623,-13.26379 -12.4621,-26.83868 -18.74971,-41.04931 -1.97983,-4.7132 -3.85703,-9.47278 -5.96227,-14.12925 -3.64564,-8.06366 -7.4326,-16.06344 -11.20376,-24.85354 -2.71066,-6.04077 -5.93738,-11.91199 -7.99336,-18.16791 -2.25881,-6.87311 -12.47763,-7.29984 -16.3766,-2.07513 -0.91446,1.22543 -1.56061,3.46777 -1.08062,4.78793 3.83032,10.53488 7.96154,20.96033 12.0265,32.16626 m 17.75426,-77.37729 c 0.74373,1.20648 1.48746,2.41299 2.18926,4.49222 0.11635,2.03168 0.2327,4.06335 0.0256,6.88983 -1.22964,3.27829 0.98535,3.13003 3.88031,3.37906 11.93592,1.81677 23.63828,2.10208 34.85233,-5.3606 0.88739,-1.56112 1.77479,-3.12222 3.09111,-4.94296 0.1376,-0.47055 0.27521,-0.94113 0.98416,-1.78693 1.03175,-1.70971 2.06351,-3.41946 3.59953,-5.45428 0.27246,-0.5202 0.54493,-1.04041 1.56817,-1.62329 5.60682,3.76242 -1.65061,7.14724 -0.26684,10.7937 17.98917,3.41779 31.11461,-2.07922 36.59009,-16.53204 2.68543,-7.08832 3.1362,-13.56763 0.73633,-21.14072 -2.95453,-9.32337 -11.54688,-11.86136 -18.60785,-6.13538 -3.98512,3.23157 -7.69952,6.88642 -11.05292,10.76786 -1.55148,1.7958 -2.32333,4.51745 -2.78784,6.94577 -0.87437,4.57095 -1.26951,9.23358 -2.02026,15.07461 -1.58476,-1.8396 -1.99813,-2.31943 -2.33112,-3.72552 -0.41539,-5.34748 -0.83076,-10.69492 -1.22217,-16.6836 -0.98263,-1.03012 -1.96527,-2.06024 -3.55195,-3.62039 -8.19072,-2.83621 -16.31241,-2.54355 -24.93738,0.44678 -0.47928,0.27728 -0.95856,0.55456 -2.16403,0.81781 -3.10874,1.62512 -6.21749,3.25027 -9.94509,4.89956 -0.82663,0.57862 -1.65326,1.15723 -3.25486,2.06617 -0.68418,5.37048 -1.36837,10.74093 -2.70885,16.20074 -0.4101,-0.16119 -0.82019,-0.32236 -1.28774,-1.29303 -0.27128,-4.56634 -0.26509,-9.17196 -0.90457,-13.68616 -0.48254,-3.40643 -2.04908,-6.22454 -6.98364,-3.53604 -0.40124,0.20289 -0.80249,0.40577 -1.93509,0.60376 -10.75642,2.53067 -21.51284,5.06131 -32.98106,7.41278 -1.03571,1.11109 -2.071413,2.2222 -3.405031,3.60569 0,0 -3.74e-4,0.40368 -0.571564,0.74206 -0.441681,0.99246 -0.883362,1.9849 -1.741218,3.2038 -0.231728,0.25149 -0.322228,0.54635 -0.776009,1.38415 -5.331215,9.64868 -5.136284,10.36136 4.576057,15.9787 2.535175,1.1673 5.070335,2.33457 8.042465,4.07029 1.84997,0.57845 3.69994,1.15688 6.11179,2.14358 1.82325,0.26297 3.6465,0.52597 6.10794,1.09192 0.46085,-0.0424 0.92169,-0.0848 2.23106,0.11853 3.37869,-0.40814 6.75736,-0.81625 10.85581,-1.13516 2.55655,-1.91172 5.11312,-3.82343 8.11486,-6.387 0.4255,-3.40875 0.85101,-6.81747 1.88021,-10.08627 M 43.705605,262.79083 c 0.753643,-0.82522 1.507286,-1.65048 2.828392,-2.69555 14.114971,-13.1359 32.159301,-19.61457 49.105636,-28.7277 -8.916626,-4.7888 -18.024559,-6.1284 -27.777786,-3.99376 -0.03693,-0.49873 -0.07385,-0.99746 -0.110787,-1.49618 1.824563,-1.14264 3.649117,-2.28528 5.74479,-3.59769 -4.386368,-3.90011 -9.127938,-5.08809 -15.275994,-4.23446 -10.21685,2.23867 -19.725227,6.19203 -28.265297,12.22627 -1.921604,1.35777 -3.676349,3.4373 -4.640148,5.57567 -3.127819,6.93976 -5.352447,14.32065 -8.845598,21.054 -5.796672,11.17358 -8.09112,22.80279 -6.433359,35.18738 1.338836,10.00201 4.856428,19.21292 10.835132,27.49218 -2.285808,-19.36117 5.038018,-35.47494 16.597325,-50.16436 0.279354,-0.43696 0.558712,-0.8739 1.417621,-1.60007 1.042912,-1.33548 2.085823,-2.67096 3.650177,-3.9422 0.178105,-0.28336 0.356209,-0.56671 1.169896,-1.08353 M 227.9375,551.77655 c 0.75101,0.57648 1.50201,1.15302 2.25302,1.72949 0.21848,-0.30853 0.43694,-0.617 0.65541,-0.92553 -0.89368,-0.58454 -1.78734,-1.16913 -2.84811,-2.42627 -0.37978,-1.45612 -0.75954,-2.91217 -1.13932,-4.36829 1.64655,0.13586 3.29227,0.2829 4.93989,0.40417 1.35478,0.0997 2.7118,0.16883 4.90251,0.30237 -3.19664,-2.94256 -5.23998,-4.82348 -7.28333,-6.70447 1.92632,-0.95635 3.85265,-1.91271 6.42421,-3.18939 -1.09373,-1.13415 -1.99202,-2.41931 -3.20566,-3.23565 -1.56065,-1.04981 -3.37429,-1.72345 -5.07895,-2.55915 0.86756,-1.67267 1.73513,-3.3454 2.56929,-4.95373 -2.31939,-0.95593 -4.64942,-1.91626 -7.38096,-3.04206 1.6355,-1.88555 2.7428,-3.16211 3.70665,-4.27337 -2.27095,-1.79639 -4.67169,-3.01764 -6.08515,-4.95795 -2.74693,-3.77106 -4.38484,-8.4566 -7.49295,-11.83276 -4.58851,-4.98432 -10.13766,-9.07169 -15.13606,-13.69422 -6.97613,-6.4515 -13.74936,-13.1242 -20.79491,-19.49719 -1.16247,-1.05148 -3.27333,-1.0545 -5.32167,-2.05386 -0.59925,-0.83072 -1.19851,-1.66144 -1.71821,-3.13135 -0.63699,-0.371 -1.27397,-0.74203 -2.5795,-1.33521 -1.83365,-1.56591 -3.64264,-4.41387 -5.50572,-4.4497 -4.95359,-0.0952 -8.85588,-1.54718 -11.78617,-5.40644 -1.80616,1.60941 -4.90441,3.18195 -4.78849,4.46375 0.65046,7.19128 0.51005,15.21869 7.23155,19.9072 13.86288,9.66992 22.26262,22.83593 26.06892,39.00036 1.86858,7.93543 2.8454,16.08081 4.2258,24.13111 -0.50384,0.11077 -1.00767,0.22149 -1.51152,0.33221 -3.54329,-9.91406 -6.27028,-20.22626 -10.8573,-29.63123 -4.67441,-9.58419 -11.98916,-17.54129 -21.90039,-24.81817 2.23953,5.29211 3.84447,9.26266 5.58704,13.17184 7.91786,17.76242 15.84196,35.52225 23.87056,53.23465 0.7538,1.66297 2.25444,2.98749 3.40831,4.46912 0.37486,-0.24982 0.74972,-0.49964 1.12458,-0.74945 -0.51478,-4.36951 -1.02958,-8.73902 -1.54438,-13.10852 0.57956,-0.16083 1.15913,-0.3216 1.73869,-0.48242 1.42769,2.33557 2.79047,4.71405 4.29802,6.99688 2.36479,3.58087 4.52257,7.37476 7.38415,10.51734 1.32099,1.45062 5.03081,2.83087 6.04711,2.07568 3.64406,-2.7077 6.46023,-0.9801 9.88551,0.73175 -0.0582,-0.5542 -0.1165,-1.10834 -0.18451,-2.27673 0.007,-0.61292 0.0147,-1.22583 0.75603,-2.0293 2.26222,0.82532 4.52443,1.65057 7.21109,2.63068 -0.23854,-1.13953 -0.39992,-1.74634 -0.4877,-2.36371 -0.18295,-1.28675 -0.32701,-2.57904 -0.48705,-3.86896 1.28899,0.36151 2.66053,0.55408 3.8436,1.13232 1.16963,0.5716 2.14888,1.53278 3.21166,2.32312 0.35351,-0.3308 0.70704,-0.66162 1.06057,-0.99243 -0.88983,-1.41992 -2.03164,-2.74438 -2.61401,-4.28088 -1.03043,-2.71845 1.25758,-3.39203 5.32785,-0.91565 M 372.68277,248.59932 c 9.97681,2.52141 14.99744,9.95421 18.28659,18.8643 1.93271,5.23566 3.31821,10.67334 5.21054,16.87442 3.33087,-2.63827 6.36917,-4.64785 8.84131,-7.20486 0.94363,-0.97605 1.34863,-3.63111 0.6983,-4.79267 -3.08505,-5.51028 -6.57486,-10.79806 -10.03064,-16.09323 -0.69085,-1.05854 -1.71335,-2.24211 -2.83548,-2.62198 -6.91076,-2.33934 -13.89398,-4.46476 -21.49987,-7.02623 -0.30564,-0.13169 -0.60135,-0.29699 -0.91828,-0.39036 -46.0228,-13.55666 -93.05759,-15.95152 -140.504,-11.85164 -38.09872,3.29213 -75.28389,11.43559 -111.55825,23.65135 -24.751286,8.33527 -48.910748,17.81821 -68.344437,36.09543 -5.579033,5.24701 -10.445396,11.2518 -15.522057,16.78226 7.145138,4.70877 13.289566,8.75805 19.846234,13.07901 1.057045,-3.62015 1.927997,-6.63413 2.817238,-9.64267 2.881309,-9.74823 5.415596,-19.71216 12.393806,-27.55045 8.188484,-9.19775 16.323837,-13.18948 27.192803,-6.89358 10.189793,5.90246 19.929903,12.60467 29.689003,19.2189 6.26485,4.24603 7.04519,4.23499 11.42087,-1.91373 7.61594,-10.70196 14.84639,-21.73166 23.15233,-31.8757 10.50743,-12.83278 19.79917,-14.475 30.86505,-6.49087 3.74151,2.69952 7.08193,6.05804 10.21167,9.47616 3.91028,4.27051 7.41391,8.91336 11.26406,13.60373 5.76245,-6.88861 11.15259,-13.63657 16.86482,-20.09985 13.59518,-15.38274 28.06343,-15.15071 40.09084,0.77142 4.38186,5.80078 8.05371,12.13791 12.28631,18.59143 2.04724,-2.22104 4.02551,-4.21405 5.82898,-6.35431 4.39639,-5.21728 8.4249,-10.77655 13.12302,-15.70056 8.27868,-8.67662 13.87973,-8.6113 22.77923,-0.25803 2.29926,2.15815 4.45188,4.51343 6.40543,6.98847 2.3464,2.97275 4.40793,6.17035 6.60632,9.28979 0.72654,-0.37139 1.25443,-0.50106 1.57514,-0.83172 0.92556,-0.95429 1.74933,-2.00623 2.64535,-2.99045 8.05774,-8.85065 15.49072,-18.46559 27.93018,-22.49791 0,0 0.41098,-0.19731 1.12549,-0.1507 0.45016,-0.14604 0.9003,-0.29206 2.0621,-0.0552 m -162.3499,51.59361 c 0.31857,-5.96387 -1.41588,-10.78863 -6.42616,-14.66058 -3.23264,-2.49814 -5.46431,-6.25531 -8.33635,-9.26526 -3.78379,-3.96545 -7.52002,-8.03272 -11.70816,-11.5412 -4.9131,-4.11578 -8.58109,-3.98883 -13.19457,0.51624 -3.29825,3.2207 -6.16086,6.99212 -8.71516,10.85055 -7.72008,11.66175 -15.17549,23.49838 -22.77568,35.2399 -2.87592,4.44302 -4.07813,4.56644 -8.21268,1.09424 -3.1882,-2.67749 -6.33214,-5.40854 -9.55096,-8.04849 -9.29401,-7.62253 -18.70676,-15.14042 -30.521274,-18.49421 -2.210663,-0.62753 -5.441902,-0.34762 -7.247421,0.89774 -2.911705,2.0083 -5.857414,4.77863 -7.3284,7.91254 -4.444145,9.46811 -8.83081,19.05743 -12.04113,28.98709 -4.218323,13.04736 -0.442058,26.06286 2.120857,38.96246 0.544625,2.74118 1.073662,5.48551 1.609879,8.22836 -6.219574,-8.14602 -10.178146,-17.17376 -10.842106,-26.95498 -0.542419,-7.99069 -3.007721,-13.6351 -10.441513,-17.1485 -3.915592,-1.85062 -7.362278,-4.69336 -11.536068,-7.42551 -2.372375,29.45987 2.459126,55.98908 20.231869,78.9679 7.589451,9.81259 16.541714,18.33658 27.612522,23.87188 2.784378,-5.5426 6.038742,-10.04748 7.335541,-15.05892 2.006569,-7.75434 7.45124,-9.71698 14.078174,-10.74762 1.64602,-0.25602 3.27956,-0.66654 4.93435,-0.78012 10.98883,-0.75416 21.03855,-4.50858 30.88198,-9.18647 3.85954,-1.83413 8.0236,-3.39703 12.21331,-4.09033 8.86565,-1.46707 17.89014,-1.9736 26.75647,-3.43738 12.10862,-1.99902 24.13059,-4.52273 36.2956,-6.8417 -0.80765,-5.47418 -1.51871,-10.2937 -2.22977,-15.11322 0.71205,-0.15796 1.42412,-0.31592 2.13617,-0.47388 1.16371,3.1825 2.80453,6.28217 3.37505,9.56769 0.78169,4.50195 3.35978,6.99045 7.19769,8.80466 14.459,6.83499 30.27913,1.42862 36.99916,-13.1706 2.83673,-6.16281 4.59515,-12.82049 6.87417,-19.2424 0.65607,-1.84872 1.41834,-3.65979 2.1319,-5.4881 0.7106,0.20755 1.42117,0.41513 2.13175,0.62268 -1.51059,7.71421 -2.71503,15.50721 -4.67145,23.10663 -0.8718,3.38623 -0.60007,5.19205 2.65335,6.66654 13.06491,5.92102 25.93985,4.74545 38.60016,-1.04673 1.77872,-0.81381 3.30954,-2.90179 4.21408,-4.76055 3.04977,-6.26709 5.75653,-12.70075 8.61453,-19.06165 0.75791,-1.68686 1.58789,-3.34128 2.38477,-5.01059 0.45556,0.17508 0.91113,0.35016 1.36667,0.52524 -2.19986,8.41971 -4.39972,16.83942 -6.75934,25.8706 4.5953,0.94367 8.75754,2.0839 12.996,2.60926 8.76779,1.0867 16.8544,0.24069 22.64868,-7.904 2.77741,-3.90402 6.46832,-7.1621 9.78034,-10.6799 1.37487,-1.46026 2.84075,-2.8348 4.26526,-4.24829 0.30013,0.26505 0.60028,0.53012 0.90038,0.79517 -3.80752,5.93609 -7.61508,11.87216 -11.42263,17.80826 0.31781,0.59295 0.63559,1.18591 0.95337,1.77887 8.14142,0 16.30255,0.32809 24.41455,-0.16047 3.27319,-0.19714 6.84552,-1.58624 9.58111,-3.45718 10.34439,-7.07474 16.72959,-17.4361 22.2789,-28.37036 2.44287,-4.81345 4.8433,-9.64838 7.26297,-14.47357 0.60181,0.35074 1.20362,0.70144 1.80539,1.05215 -4.61078,17.26343 -13.97647,31.68485 -29.01642,43.9166 13.1987,0.4635 24.79572,-0.16892 35.09989,-7.27976 7.39578,-5.10376 13.26639,-17.93332 5.78406,-28.13525 -4.60138,-6.27393 -7.96491,-13.4498 -11.96149,-20.17474 -5.05621,-8.508 -10.19095,-16.9693 -15.66351,-26.06882 -8.75171,7.1073 -18.49823,11.32925 -20.59049,23.41217 -1.04782,6.05121 -4.75851,11.6413 -7.26486,17.43994 -0.6442,-0.2395 -1.28836,-0.47897 -1.93253,-0.71848 0.35822,-1.47671 0.66367,-2.96865 1.08371,-4.42758 1.93366,-6.71533 3.92725,-13.41354 5.83063,-20.13739 0.40006,-1.41327 1.01907,-3.04345 0.67386,-4.34463 -2.72629,-10.27613 -4.90424,-20.79013 -11.39874,-29.62317 -5.30143,-7.21031 -7.97876,-8.20757 -14.97821,-2.41995 -12.97437,10.72799 -25.28354,22.08456 -25.96424,41.00387 -0.20294,5.64026 -2.67261,11.19898 -4.10373,16.79505 -0.65625,-0.13208 -1.31253,-0.26419 -1.96881,-0.39627 0.0708,-1.38358 0.0533,-2.77839 0.2276,-4.14878 0.81906,-6.43918 1.888,-12.85333 2.48606,-19.31176 0.55249,-5.96647 -0.71445,-11.43693 -4.82141,-16.25977 -3.98572,-4.68042 -7.63047,-9.69763 -10.98636,-14.85248 -2.45206,-3.76642 -5.07572,-3.8114 -8.30011,-1.55627 -1.62735,1.13815 -3.34885,2.32232 -4.5503,3.85904 -6.97,8.915 -14.1084,17.72683 -20.52841,27.03003 -2.75314,3.98953 -4.17361,8.99386 -5.70495,13.69812 -1.02463,3.14758 -1.17811,6.57873 -1.72138,9.88299 -0.46445,0.0112 -0.92886,0.0224 -1.39328,0.0336 -0.0964,-2.06427 -0.44745,-4.15515 -0.23541,-6.18726 0.42581,-4.08157 1.12015,-8.13736 1.77307,-12.19259 1.47586,-9.16635 -3.56644,-15.97037 -8.50705,-22.63159 -3.62939,-4.89341 -7.43509,-9.88019 -12.06046,-13.75244 -5.42448,-4.54123 -11.88229,-4.11393 -16.57618,1.11041 -7.63964,8.50302 -14.50716,17.69736 -21.76317,26.54858 -2.75395,3.35947 -2.94765,7.0503 -2.56868,11.21665 1.0863,11.94293 1.80608,23.91967 2.60931,35.88723 0.0967,1.44019 -0.17932,2.9054 -0.28257,4.35901 -0.67052,0.0237 -1.34105,0.0474 -2.01157,0.0711 -3.41095,-12.7721 -2.48682,-26.13999 -4.39,-40.03925 m 31.90038,383.08795 c 4.61032,2.87311 9.0682,6.04364 13.88552,8.51294 3.11484,1.59662 6.36338,0.6518 7.9123,-2.84607 3.61374,-8.16076 7.78369,-16.18768 10.29574,-24.69195 2.46234,-8.33624 3.88407,-7.70893 11.39084,-5.65375 1.87631,0.51373 3.54858,1.80768 5.28333,2.79785 7.51916,4.29169 15.00195,8.64771 22.54727,12.8927 4.93588,2.77692 10.61197,2.55615 13.43408,-1.95459 5.59033,-8.93542 11.08746,-18.27606 7.50705,-29.68182 -1.97879,-6.30359 -4.00656,-12.59168 -6.01227,-18.88678 0.58823,-0.23102 1.17642,-0.46204 1.76465,-0.69305 1.61676,3.86376 3.09833,7.79144 4.88675,11.57409 1.95364,4.13208 3.21686,9.36078 6.49039,11.95221 9.30847,7.36884 20.02368,12.35419 31.7611,15.11945 6.59351,1.5534 12.02182,-0.23511 15.36786,-5.42505 6.92191,-10.73651 11.72443,-22.40589 9.5672,-35.6449 -1.39062,-8.53442 -3.29068,-16.98578 -5.01996,-25.76648 0.83787,0.28717 1.46781,0.30121 1.70456,0.61347 8.36423,11.03143 20.3736,15.51257 33.14231,18.94928 10.09927,2.71813 20.04465,6.02124 30.014,9.20342 5.3653,1.71253 11.70685,0.23267 13.96274,-4.60876 2.62915,-5.64246 4.71512,-11.67462 6.02091,-17.7558 1.13629,-5.29193 -0.20093,-10.3656 -4.26251,-14.72217 -3.72913,-4 -6.6839,-8.72186 -9.97983,-13.12573 0.29162,-0.27832 0.58325,-0.55664 0.87488,-0.83496 2.3926,2.18951 4.59619,4.64746 7.22662,6.49909 3.14035,2.21057 6.51764,4.19952 10.03662,5.71844 2.5459,1.09875 5.48059,1.32416 8.25818,1.85376 10.95251,2.08801 21.85559,4.78583 33.14258,2.34521 8.11426,-1.75463 11.11108,-5.41015 10.26813,-13.64019 -0.2948,-2.87897 -1.24415,-5.92096 -2.7046,-8.41394 -10.9569,-18.70362 -27.69805,-31.20429 -45.86645,-42.09119 -0.88931,-0.5329 -2.2814,-0.86035 -3.22302,-0.57336 -8.41965,2.56622 -16.93976,4.90857 -25.12836,8.0932 -6.43625,2.50311 -10.88046,7.5335 -13.17548,14.22259 -2.72848,7.95264 -4.47644,8.66413 -12.94296,6.75134 -3.27136,-0.73907 -7.12454,-1.23065 -10.16641,-0.2088 -8.1832,2.74878 -16.39783,5.76972 -23.96927,9.8523 -5.54465,2.98968 -10.53674,7.40924 -14.89847,12.02069 -2.25375,2.38287 -4.05179,3.74268 -7.04577,3.03522 -2.73118,-0.64533 -5.36539,-1.69721 -8.04877,-2.54969 -2.02329,-0.64276 -4.15412,-2.00628 -6.07022,-1.75854 -14.43366,1.86645 -28.77237,4.53845 -40.94513,13.13129 -5.07452,3.58221 -9.73367,3.73034 -14.88702,1.38275 -2.86213,-1.30365 -5.58564,-2.94757 -8.26526,-4.60956 -13.03885,-8.08722 -13.13642,-8.21564 -24.01865,2.90015 -4.28824,4.38037 -8.67911,6.29541 -15.04044,5.29535 -11.45324,-1.80073 -22.5422,0.14434 -32.95564,5.53253 -1.34782,0.69738 -3.17566,1.08087 -4.64796,0.82946 -15.69612,-2.67926 -31.36531,-5.51623 -48.81682,-8.62616 -6.71649,13.41138 -14.62177,28.0207 -21.41368,43.1305 -5.43149,12.08331 -7.64974,25.13202 -7.35121,38.47326 0.11949,5.34003 1.41418,10.22358 6.40806,13.52625 12.86156,-6.5777 17.81166,-21.39887 30.53885,-29.4101 2.88455,4.95533 5.75888,9.58069 8.32072,14.37311 3.20897,6.00293 5.78637,12.37226 9.32637,18.16156 3.80333,6.22003 7.33062,6.18036 12.08362,0.73499 5.98165,-6.85309 11.96674,-13.70319 17.91463,-20.51361 5.2894,5.1922 10.14488,9.95849 15.5183,15.20855 m -83.60805,5.91352 c -3.01654,1.66113 -6.03308,3.32232 -9.14763,5.03741 0.37147,0.43915 0.63008,0.8501 0.98382,1.14789 11.66297,9.81763 25.58068,13.20355 40.34708,13.68292 27.174,0.88214 53.73776,-4.34472 80.06195,-9.84418 27.15232,-5.67248 53.89646,-13.32476 80.75876,-20.34216 7.10458,-1.85596 13.98654,-4.56396 21.57007,-7.07959 -10.87793,-4.77307 -20.87933,-9.1615 -31.34317,-13.75281 -0.96094,2.95325 -1.58487,6.08081 -2.95932,8.83356 -2.56986,5.14673 -5.22739,10.32886 -8.59073,14.95685 -1.15353,1.58728 -4.94858,2.74103 -6.81409,2.07336 -9.19409,-3.29046 -18.19964,-7.13525 -27.15756,-11.04583 -3.88357,-1.69544 -7.49268,-4.01966 -10.52194,-5.67359 -3.97687,7.32221 -6.82721,14.79614 -11.54068,20.80976 -11.70249,14.93029 -15.48166,15.46667 -32.24761,4.12768 -4.9123,-3.32226 -9.04718,-7.79407 -13.81579,-11.98266 -1.09,1.29889 -2.03392,2.66259 -3.20931,3.78363 -5.64401,5.38311 -11.07464,11.04107 -17.1176,15.93945 -5.33001,4.32043 -9.36435,4.34564 -13.97143,-0.77368 -4.68352,-5.20429 -8.09497,-11.59503 -11.77916,-17.63947 -1.84453,-3.02624 -3.05606,-6.43835 -5.42603,-11.56109 -6.45439,6.98266 -11.96627,12.94573 -18.07963,19.30255 M 271.306,398.76108 c 2.83017,-7.06287 5.66034,-14.12574 8.58838,-21.43289 -4.26157,-2.206 -8.49155,-4.39566 -11.26868,-5.83323 -6.64758,3.37259 -12.1857,6.17804 -17.7198,8.99146 -3.53893,1.79913 -7.57186,3.04294 -10.45665,5.58664 -2.51827,2.22043 -4.19875,5.74499 -5.38098,9.00799 -0.85292,2.3541 0.14915,5.32392 -0.43347,7.844 -1.22196,5.28558 -2.94315,10.45572 -4.5158,15.86743 2.14806,0.20624 3.9598,0.3652 5.76813,0.55618 21.59059,2.28022 26.23894,-0.34887 35.41887,-20.58758 M 27.36315,213.72697 c -1.865036,3.88491 -4.700062,7.52546 -3.364497,12.79663 12.252762,-5.93164 21.322071,-17.61053 36.537571,-16.44993 -3.546093,-9.00685 -13.150055,-6.75263 -19.860893,-12.8698 4.212746,-1.11073 7.193913,-1.89676 11.201195,-2.95332 -5.500694,-11.6364 -11.027588,-23.48622 -16.756081,-35.23778 -0.6823,-1.3997 -2.708729,-3.35861 -3.683708,-3.14076 -1.857878,0.41508 -3.84263,1.91301 -4.957441,3.52614 -1.056168,1.52827 -1.453911,3.77624 -1.472409,5.71408 -0.121856,12.7653 -0.0629,25.53233 -0.0629,38.2988 0.880009,-0.1801 1.760015,-0.36022 2.640024,-0.54033 0.72109,1.17802 2.116629,2.41369 2.021925,3.522 -0.193148,2.26035 -1.189047,4.45207 -2.242784,7.33427 M 240.03448,566.66351 c 0.75081,-2.37634 1.50161,-4.75268 2.25242,-7.12902 -7.64759,4.8659 -14.33231,10.28851 -21.16846,15.51287 -7.98071,6.09918 -16.73293,10.06641 -27.13588,9.42408 -1.56143,-0.0964 -3.19486,0.97332 -5.15943,1.62426 6.0584,0.93726 11.29447,1.61292 16.47227,2.59571 3.41093,0.64734 6.71466,1.83935 10.10685,2.60913 10.58142,2.40136 16.95799,-1.05896 20.37821,-11.06513 1.44809,-4.23663 2.71125,-8.53643 4.25402,-13.5719 m -95.86773,52.9101 c 3.7893,-9.37549 5.25441,-18.8678 1.1544,-28.71808 -6.40768,19.44708 -12.81537,38.89423 -19.22304,58.34131 0.41413,0.19751 0.82827,0.39508 1.2424,0.59259 5.52231,-9.82977 11.04464,-19.65955 16.82624,-30.21582 M 270.97711,505.53357 c 1.578,-1.86853 3.15601,-3.73706 4.73401,-5.60562 -0.30539,-0.30646 -0.61081,-0.61292 -0.91623,-0.9194 -14.17001,5.45062 -28.34004,10.90124 -43.04857,16.55902 1.43204,2.38421 2.58548,4.30456 3.62757,6.03955 7.90197,-3.02716 15.55157,-5.71546 22.98832,-8.9007 4.21457,-1.80514 8.08008,-4.42532 12.6149,-7.17285 M 135.94984,452.67441 c -0.7281,-2.58502 -1.45619,-5.17005 -2.18429,-7.75507 -0.36275,0.0892 -0.7255,0.17847 -1.08824,0.2677 1.02385,4.9942 2.04771,9.98837 3.07158,14.98258 0.44047,-0.0804 0.88093,-0.16086 1.32141,-0.24128 -0.34401,-2.14694 -0.68802,-4.29391 -1.12046,-7.25393 m 319.4225,-69.78113 c 1.22306,0 2.44611,0 3.66916,0 -0.0181,-0.30502 -0.0362,-0.61008 -0.0543,-0.9151 -1.34817,0.15808 -2.69632,0.31616 -3.6149,0.9151 m 0.14447,1.51526 c 0,0 0.0698,0.11441 0,0 z"
   id="path2"
   style="display:inline" />

<path
   fill="#2a2a2c"
   opacity="1"
   stroke="none"
   d="m 831.49951,834 c -5.70709,-1.64325 -10.88415,-3.39203 -16.12781,-4.91058 -18.50616,-5.35956 -34.78845,-15.18671 -50.93963,-25.26783 -7.65808,-4.78003 -15.21778,-9.71813 -22.8028,-14.61444 -1.32379,-0.85455 -2.55212,-1.85699 -3.62524,-4.03674 1.14477,-0.0989 2.45404,-0.61395 3.4104,-0.23596 23.09387,9.12817 46.4057,17.77563 69.0899,27.8363 9.30994,4.12909 17.25141,11.34357 26.15558,17.1919 C 837,831.26331 837,832.52661 837,834 c -1.66486,0 -3.33295,0 -5.50049,0 m -20.01996,-10.15509 c 5.52613,1.79132 11.05231,3.5827 16.57843,5.37402 0.19843,-0.45782 0.39685,-0.91565 0.59528,-1.37347 -5.05756,-3.04132 -10.11511,-6.08258 -15.73071,-9.57684 -5.30957,-2.38953 -10.6192,-4.779 -16.53296,-7.56562 -10.36853,-4.00775 -20.73706,-8.0155 -31.50202,-12.41131 -0.4234,-0.007 -0.8468,-0.0133 -1.2702,-0.02 0.37885,0.33618 0.75775,0.6723 1.53601,1.55737 10.61463,5.97217 21.22925,11.94428 32.43665,18.3407 4.44372,1.76685 8.88739,3.53369 13.88952,5.67511 z"
   id="path4"
   style="display:inline" />


<path
   fill="#0c0d09"
   opacity="1"
   stroke="none"
   d="m 728.96057,427.98929 c -1.79944,22.86151 -4.35315,45.64746 -12.21857,67.33774 -4.66772,12.87219 -10.14831,25.49456 -15.99682,37.88299 -8.82434,18.69196 -17.90253,37.28705 -27.60327,55.53504 -7.94446,14.94421 -20.01758,26.82599 -31.52954,39.0476 -20.19788,21.44306 -42.19941,40.84772 -66.18268,58.84992 -2.86615,-0.81409 -5.27881,-1.935 -7.44367,-3.27271 2.82514,-2.27881 5.40253,-4.34088 8.19501,-6.38257 0.448,-0.12616 0.68091,-0.27276 0.91382,-0.41943 -0.10236,-0.095 -0.28363,-0.28168 -0.29553,-0.27142 -0.26954,0.23169 -0.52051,0.48504 -1.15448,0.66937 -5.07996,1.94672 -9.78028,3.9585 -14.89106,5.97156 -3.42022,-0.67444 -6.47222,-1.2063 -9.42566,-2.07392 -2.1632,-0.63556 -4.19696,-1.71197 -5.92785,-2.7348 4.03223,-1.20129 7.78723,-2.03509 11.35998,-3.36053 10.42225,-3.86658 21.9325,-6.21967 30.8888,-12.29993 14.97223,-10.16406 26.04968,-24.45929 33.43951,-41.38226 5.62073,-12.87165 6.66901,-26.44361 6.56671,-40.06519 -0.15478,-20.604 -1.18261,-41.20135 -1.72546,-62.12878 0.77368,-1.46991 1.43329,-2.61273 2.46936,-3.75421 2.10956,0.33056 3.84265,0.65985 5.61664,1.28839 0.95141,1.05914 1.862,1.81897 2.84466,3.00024 3.2591,32.53809 0.47797,64.48334 -2.4237,97.40534 38.31836,-33.30652 43.9107,-77.1615 43.80352,-123.51917 4.39112,13.98084 9.04712,28.10767 9.10425,43.68518 5.31378,-9.67456 10.34003,-19.37323 14.33753,-29.47891 9.45306,-23.89758 13.65686,-48.98764 15.87701,-74.577 0.1875,-0.19284 0.29236,-0.3182 0.26422,-0.39486 -0.0724,-0.19733 -0.20355,-0.37305 -0.35241,-0.90924 0.0491,-0.81263 0.13928,-1.27338 0.37933,-2.05253 0.14111,-1.74426 0.13239,-3.17019 0.0888,-4.84045 -0.0348,-0.24432 0.0826,-0.72375 0.50702,-0.74853 1.83898,-0.0555 3.2536,-0.0862 4.66101,-0.10059 -0.007,0.0163 0.01,-0.0139 0.0119,0.34442 1.94848,1.48865 3.89502,2.61896 5.84161,3.74924 z"
   id="path7"
   style="display:inline" />
<path
   fill="#2a2826"
   opacity="1"
   stroke="none"
   d="m 567.73828,683.58667 c 2.4126,1.12091 4.82526,2.24182 7.61951,3.40765 14.18255,5.05304 27.99872,10.01966 41.77221,15.10187 3.02039,1.11444 5.88886,2.64057 8.82727,3.97711 -0.0628,0.65497 -0.12554,1.30988 -0.18835,1.96485 -1.9895,0.17443 -3.98285,0.53161 -5.9679,0.49066 -7.3142,-0.151 -14.62475,-0.48963 -21.93908,-0.61749 -1.3653,-0.0238 -2.74188,0.59899 -4.60791,2.24877 1.88635,1.36744 3.6087,3.09034 5.68408,4.04841 26.28809,12.13568 52.75,23.90216 78.90338,36.31933 14.03815,6.6651 27.57794,14.3822 41.30499,21.69519 0.85499,0.45551 1.38093,1.52863 1.65827,3.50769 -1.79602,-0.13556 -3.66522,0.005 -5.37744,-0.44714 -44.65863,-11.80353 -88.39282,-26.2901 -131.26258,-43.59448 -16.94763,-6.84094 -34.91571,-11.15363 -53.13189,-16.78998 -5.6695,-1.73724 -10.62635,-3.302 -15.92078,-5.07739 -6.29391,-2.32288 -12.3457,-3.64704 -18.62677,-3.07904 -0.16934,0.49115 -0.33868,0.9823 -0.50803,1.47345 4.00473,1.91644 8.0095,3.83288 12.00412,6.12451 1.78672,4.99725 6.11017,6.12884 10.11316,7.70312 1.5365,1.36743 3.16797,2.64508 4.57569,4.13422 0.91375,0.96655 1.50122,2.24145 2.23486,3.37829 -1.30524,0.43244 -2.67047,1.35059 -3.90356,1.19831 -2.74628,-0.33924 -5.41291,-1.27845 -8.13801,-1.84882 -2.053,-0.42963 -4.14648,-0.66614 -6.55615,-1.031 -0.51068,-0.49061 -0.60046,-1.26581 -0.8764,-1.33899 -5.92865,-1.57257 -11.87814,-3.06659 -18.43549,-4.88623 -15.75955,-5.73609 -30.89264,-11.20307 -46.07034,-16.54334 -2.29703,-0.80829 -4.80148,-1.02698 -7.09021,-1.4939 0.67218,2.46857 1.13477,4.16748 1.59738,5.86634 -1.70706,-0.19782 -3.49924,-0.13001 -5.10486,-0.64447 -4.40588,-1.41193 -8.73343,-3.06836 -13.17505,-4.98297 -2.7405,-4.07056 2.65818,-3.72394 2.83368,-6.22693 0.0516,-0.18994 0.22074,-0.54535 0.55011,-0.55078 1.72425,-1.31519 3.11918,-2.62494 4.74659,-4.10309 0.14114,-0.65607 0.0498,-1.14374 0.12799,-1.95758 -2.43317,-4.75019 -11.00174,-8.67957 -16.56028,-8.16321 -0.73166,-0.77283 -1.29553,-1.30371 -1.69046,-2.05335 -4.16223,-5.33789 -9.36493,-7.90271 -16.16314,-5.79138 -1.11109,-0.98901 -2.2222,-1.97796 -3.38391,-3.01202 2.53457,-4.6073 20.19803,-9.25617 27.04702,-6.26074 4.46033,5.35626 12.45426,7.02667 15.55906,3.34668 -4.88721,-1.20356 -9.57554,-2.35816 -14.26383,-3.51276 2.44424,-1.38458 4.79736,-2.97314 7.35056,-4.11383 6.44799,-2.88062 12.94714,-5.6568 19.50259,-8.2832 3.94369,-1.58014 8.09299,-2.65039 12.02301,-4.25959 1.51791,-0.62152 2.66852,-2.1206 4.01553,-3.18298 2.86063,-2.25604 5.15067,-6.62537 9.97278,-2.25635 3.95203,5.77124 9.92038,7.84082 13.88251,5.22968 -3.23224,-2.13672 -6.4895,-4.28998 -9.74677,-6.44324 -1.58773,-2.40991 -6.84146,-2.11688 -4.811,-7.51501 2.18756,-1.23047 4.0553,-1.90461 6.07999,-2.36847 0.69046,-0.0153 1.2239,-0.24091 1.72625,-0.4419 -0.0311,0.0245 -0.0869,-0.0317 -0.0869,-0.0317 3.15103,1.01191 6.30206,2.02375 9.9444,3.40064 5.64251,4.67108 11.88617,5.45502 18.46197,6.13489 3.80136,1.07843 7.38471,1.893 10.99762,2.94433 0.49115,0.6474 0.9527,1.05805 1.74262,1.5055 1.36041,0.35852 2.39239,0.68023 3.71362,1.22094 1.87231,0.62793 3.45544,1.03693 5.19958,1.76197 1.47992,1.25793 2.79877,2.19995 4.06189,3.40893 -0.10272,0.62665 -0.14965,0.98633 -0.59863,1.47742 -5.17895,1.33331 -9.98108,2.44482 -14.72296,3.77191 -2.7367,0.76587 -3.19598,2.22424 -0.59052,4.30023 1.26636,1.58197 2.47461,2.87177 3.9917,4.32251 8.07263,6.65582 17.20789,10.09314 26.97467,12.12286 2.09143,0.87995 4.12519,1.95636 6.28839,2.59192 2.95344,0.86762 6.00544,1.39948 9.79493,2.12629 2.72491,0.23303 4.6701,0.41497 6.61523,0.59692 m -92.95627,-6.72058 c 6.82379,2.78943 13.72931,4.04858 21.53229,0.82727 -1.43277,-1.00671 -2.521,-2.41052 -3.69003,-2.48138 -4.88657,-0.29621 -9.7974,-0.19221 -15.10266,-0.84205 -7.21759,-1.85553 -14.43518,-3.71112 -21.65274,-5.56671 -0.20313,0.71393 -0.40622,1.4278 -0.60935,2.14173 6.22382,1.86865 12.44763,3.73736 19.52249,5.92114 m 159.20261,58.37469 c -12.54303,-6.02758 -25.16016,-11.90887 -37.57208,-18.19537 -2.77277,-1.40442 -4.82514,-4.23114 -7.13916,-7.09869 0.52044,-5.18763 4.57415,-5.59491 8.38806,-5.8852 3.78637,-0.28802 7.61175,-0.063 11.41998,-0.063 -1.71594,-1.70556 -3.48126,-2.57287 -5.32977,-3.19183 -7.69544,-2.57696 -15.38776,-5.16956 -23.13465,-7.58496 -8.84423,-2.75751 -17.74517,-5.33307 -27.39898,-8.2439 -15.79749,-4.07147 -31.64728,-8.03582 -43.35358,-21.67999 -2.69785,-5.66223 -2.01041,-6.9859 7.77435,-13.65448 -7.96948,-2.0415 -15.23211,-3.59167 -22.27969,-5.82153 -4.35153,-1.3769 -8.81815,-3.19953 -12.42072,-5.90412 -3.53204,-2.65173 -5.96749,-2.45239 -9.69769,0.57587 3.35465,1.93933 6.08014,3.78155 9.02915,5.13751 2.46615,1.13404 5.91534,1.96857 4.62912,5.17841 -0.88794,2.21582 -3.9831,3.64087 -6.271,5.14722 -0.72388,0.4765 -2.02624,0.0744 -3.06387,0.0744 0.64001,-0.43067 1.28006,-0.86133 1.92007,-1.29193 6.7421,7.78277 13.48422,15.56561 20.34763,24.01831 0.13583,0.43274 0.27166,0.86541 0.2557,1.95709 -0.74225,1.3305 -1.48452,2.66107 -2.77514,4.15307 -0.45346,0.32502 -0.90692,0.65003 -2.12668,1.05854 -3.72849,-0.3039 -7.50949,-0.31244 -11.17615,-0.96417 -14.13608,-2.51252 -27.74774,-6.5492 -39.64972,-14.97687 -1.03933,-0.7359 -1.55826,-2.20673 -2.31888,-3.33618 1.31372,-0.34119 2.70832,-1.15424 3.92765,-0.94519 6.67868,1.14526 13.30594,2.58612 19.96768,3.83569 4.68692,0.87915 9.4006,1.61535 14.09607,2.73981 0.10171,-0.0287 0.20343,-0.0575 0.30511,-0.0863 -0.12485,-0.057 -0.24969,-0.11401 -0.69027,-0.7572 -7.23478,-5.02801 -14.32184,-10.29468 -21.80265,-14.92517 -2.00302,-1.23987 -5.6018,-1.47547 -7.78769,-0.55554 -6.98974,2.94165 -13.66009,6.64221 -19.3847,9.51355 1.04584,2.74371 2.9913,5.33307 2.69101,7.6286 -0.49332,3.77106 -4.0473,4.7373 -7.40833,3.94983 -3.99206,-0.93531 -8.87063,-1.41571 -11.53372,-3.98871 -5.24545,-5.06806 -9.79025,-2.20319 -15.11594,-1.07703 4.51929,2.84803 8.47257,5.61035 12.67756,7.91315 4.22345,2.31293 8.80111,3.97705 13.03604,6.27161 5.47546,2.96655 6.30508,8.28308 2.1557,12.87133 -1.28595,1.42194 -2.95786,2.49488 -4.58673,3.83783 2.71445,2.01715 4.35794,3.18378 6.25277,0.0229 0.67438,-1.12494 3.26996,-1.72021 4.87052,-1.53528 3.10245,0.35852 6.19592,1.22663 9.16241,2.2591 17.58737,6.12109 35.10715,12.43762 52.71863,18.48767 5.13171,1.76294 10.48932,2.86828 15.74338,4.27508 -5.26599,-5.12249 -11.16708,-9.03241 -16.70404,-13.40362 -1.60654,-1.26831 -2.1702,-3.85761 -2.61576,-6.24597 6.23331,-4.00122 12.68607,-1.44178 18.76404,-0.006 9.83258,2.32214 19.43335,5.62573 29.71723,8.96472 13.1073,3.93591 26.2146,7.87177 39.87909,12.20129 7.92584,2.82935 15.9107,5.5055 23.76135,8.52997 8.30597,3.19989 16.48425,6.73133 25.26715,10.49262 14.52496,6.1676 65.98138,21.68634 72.0979,21.28424 -6.98822,-3.56397 -12.96082,-6.77106 -19.07648,-9.67731 -4.7547,-2.25946 -9.70819,-4.09698 -14.53723,-6.20465 -11.11645,-4.85199 -22.21106,-9.75409 -33.90405,-15.0788 m 68.48224,32.26368 c 0,0 -0.0411,-0.0449 0,0 z"
   id="path8"
   style="display:inline" />
<path
   fill="#0e0e0b"
   opacity="1"
   stroke="none"
   d="m 635.94702,138.01617 c 37.48133,46.43105 66.13489,97.47109 81.32904,155.56067 8.12555,31.06525 10.94074,62.77585 11.73932,94.7435 0.19891,7.96335 0.44458,15.92548 0.45422,24.25598 -1.00451,0.40928 -1.79461,0.45078 -2.90698,0.40686 -2.0592,-1.10238 -3.79614,-2.11938 -5.55243,-3.46365 -1.05389,-1.4061 -2.08844,-2.48495 -3.02557,-3.92786 0.0563,-1.10699 0.0151,-1.84994 0.0692,-3.02349 0.022,-2.48093 -0.0515,-4.53135 -0.03,-7.0091 -0.002,-2.45795 -0.098,-4.48858 -0.12396,-6.92718 -0.0158,-1.50281 -0.10217,-2.59763 -0.0939,-4.07062 -0.0146,-1.40018 -0.12402,-2.42215 -0.15723,-3.82999 -0.0299,-0.89404 -0.13604,-1.40222 -0.11694,-2.23092 -0.0535,-1.20975 -0.23224,-2.09891 -0.29602,-3.29218 0.0146,-0.93845 -0.0859,-1.57285 -0.0937,-2.66116 -0.35663,-5.81903 -0.80591,-11.18415 -1.18738,-16.9321 -0.04,-1.14719 -0.14776,-1.91156 -0.19275,-3.03455 -0.17853,-1.53036 -0.4198,-2.70212 -0.58935,-4.21325 -0.0375,-1.02008 -0.14673,-1.70087 -0.19886,-2.78351 -0.25128,-2.23865 -0.55969,-4.07541 -0.80078,-6.08609 0.0673,-0.17392 -0.13434,-0.4877 -0.0811,-0.89981 -0.28644,-2.01065 -0.62622,-3.60916 -0.85614,-5.25397 0.10986,-0.0463 0.0778,-0.28262 0.13232,-0.66953 -0.10833,-1.14502 -0.27118,-1.90313 -0.37677,-3.00649 -0.0396,-0.7981 -0.13647,-1.25095 -0.1737,-2.01627 -0.14167,-0.66138 -0.3429,-1.01032 -0.39374,-1.74466 -0.17139,-2.58737 -0.49316,-4.78937 -0.74072,-7.29474 -0.1341,-0.8768 -0.34241,-1.45023 -0.47309,-2.38608 -0.0864,-1.33023 -0.2503,-2.29803 -0.35559,-3.6243 -0.20453,-1.27844 -0.46771,-2.19842 -0.64795,-3.42984 -0.05,-0.93759 -0.18292,-1.56375 -0.26794,-2.55838 -0.23786,-1.29562 -0.52368,-2.22274 -0.73505,-3.25894 0.0744,-0.10904 -0.0821,-0.32159 -0.0469,-0.71524 -0.33039,-1.9013 -0.69593,-3.40893 -1.01215,-5.11169 0.0494,-0.19513 -0.17102,-0.53202 -0.12671,-0.90937 -0.26526,-1.32025 -0.57483,-2.26318 -0.7818,-3.44342 -0.0222,-0.55117 -0.14691,-0.86508 -0.22583,-1.57284 -0.61035,-2.87305 -1.26654,-5.35224 -1.89557,-8.16495 -0.33734,-1.36395 -0.70196,-2.39438 -1.05353,-3.76306 -0.32,-1.14508 -0.65301,-1.95187 -1.01501,-2.71982 -0.0291,0.0388 0.0576,-0.005 0.0804,-0.33218 -0.27234,-1.12839 -0.56738,-1.92929 -0.87054,-3.12845 -0.28119,-1.13821 -0.55438,-1.87817 -0.77032,-2.81424 0.0109,-0.49606 -0.15442,-0.69934 -0.42011,-1.14728 -0.1452,-0.76105 -0.30896,-1.18081 -0.44525,-1.82992 -0.0474,-0.55402 -0.23572,-0.78693 -0.69354,-1.24265 -0.74201,-2.02829 -1.32795,-3.74194 -1.91346,-5.83011 -1.66742,-4.46103 -3.3352,-8.54753 -5.00842,-12.9575 -0.55292,-1.47342 -1.10034,-2.6234 -1.67957,-4.10793 -0.44189,-1.1045 -0.85204,-1.87445 -1.29003,-2.61447 -0.0278,0.0299 0.0527,0.0164 0.048,-0.29999 -0.33545,-0.83178 -0.66614,-1.34723 -1.00775,-2.13858 -0.30451,-0.71563 -0.59808,-1.15536 -0.92426,-1.91775 -0.61956,-1.45674 -1.2066,-2.59084 -1.83978,-4.06401 -0.80359,-1.65987 -1.56091,-2.98064 -2.48456,-4.62084 -3.80767,-7.17991 -7.44909,-14.0404 -11.15448,-21.2286 -4.58764,-7.44234 -9.11139,-14.55698 -13.6112,-22.02607 -4.18579,-6.18742 -8.39551,-12.0204 -12.62885,-18.07217 -0.0236,-0.21878 -0.2771,-0.57854 -0.22961,-0.8605 -0.0872,-0.41684 -0.22187,-0.55173 -0.42194,-1.01569 -2.8836,-4.14964 -5.7019,-7.9702 -8.6333,-12.10951 -1.13428,-1.75234 -2.15546,-3.18593 -3.22626,-4.99286 -0.57245,-2.80493 -1.09533,-5.23653 -1.60632,-8.01692 0.19153,-0.7773 0.37115,-1.20581 0.93622,-1.64826 1.15558,0.0169 1.92572,0.0477 2.69592,0.0785 z"
   id="path9"
   style="display:inline" />
<path
   fill="#0b0c0a"
   opacity="1"
   stroke="none"
   d="m 515.44965,710.03235 c 4.95684,1.56476 9.91369,3.12952 15.20367,4.82873 -3.73016,2.43598 -7.79346,4.73755 -12.20776,7.11091 -4.35401,-1.50251 -8.67746,-2.6341 -10.19446,-7.84894 2.58603,-1.75873 4.89227,-2.92475 7.19855,-4.0907 z"
   id="path10"
   style="display:inline" />
<path
   fill="#3d372d"
   opacity="1"
   stroke="none"
   d="m 726.88495,413.0686 c 0.79004,-0.0415 1.58014,-0.083 2.76581,-0.10003 4.07861,1.3247 6.4364,4.3352 5.62658,7.77081 -0.62945,2.6705 -3.65356,4.77652 -5.96508,7.19168 -2.29828,-1.07205 -4.24482,-2.20236 -5.79718,-3.61563 3.39953,1.67633 6.51739,2.26022 8.64019,-1.18784 2.24536,-3.64727 0.21533,-6.2525 -3.00671,-8.21038 -0.82452,-0.50101 -1.51276,-1.22635 -2.26361,-1.84861 z"
   id="path11"
   style="display:inline" />
<path
   fill="#3d372d"
   opacity="1"
   stroke="none"
   d="m 635.87231,137.6582 c -0.69549,0.32715 -1.46563,0.29631 -2.68774,-0.16598 -0.35333,-2.05261 -0.18225,-3.67317 -0.16925,-5.295 0.0488,-6.07938 -1.72992,-7.65384 -7.99835,-7.16868 -0.0422,-0.30937 -0.0845,-0.61874 -0.16669,-1.39483 4.75391,-2.27996 9.07184,-0.31771 10.08264,4.48126 0.62982,2.98981 0.59906,6.11873 0.93939,9.54323 z"
   id="path12"
   style="display:inline" />




<path
   fill="#f7f7f6"
   opacity="1"
   stroke="none"
   d="m 624.84924,125.25804 c 6.43616,-0.71466 8.21485,0.8598 8.16608,6.93918 -0.013,1.62183 -0.18408,3.24239 -0.21613,5.30896 -0.11316,0.87392 -0.29278,1.30243 -0.65124,2.3651 -4.23792,13.42724 -11.10095,18.76194 -24.5036,19.38165 -10.83338,0.5009 -21.0011,-2.56088 -31.13141,-5.90393 -12.12842,-4.00246 -24.28632,-7.92116 -36.48529,-11.70247 -6.80035,-2.10788 -13.08667,-0.36768 -16.58362,5.68913 -3.9234,6.79541 -6.45605,14.39379 -9.79395,21.89606 -0.35357,1.08807 -0.50701,1.92288 -0.86712,3.06574 -5.8548,20.3728 -7.63974,40.85452 -6.44336,61.59246 1.54672,26.81079 6.09247,53.18918 12.17041,79.31067 8.70422,37.40836 23.02411,72.83502 38.10669,108.00916 10.26868,23.94751 23.07928,46.09863 42.76971,63.65799 8.30329,7.40466 16.49652,15.0159 27.76532,18.48062 0.39539,0.23764 0.58533,0.27145 0.98877,0.46542 0.73303,0.20456 1.25263,0.24899 1.78492,0.28146 0.0127,-0.012 -0.0189,0.0111 0.2478,0.27262 7.87597,2.5376 13.92499,0.10049 17.71185,-6.59564 3.49091,-6.17292 6.9679,-12.57386 8.98499,-19.31318 3.89819,-13.02471 6.16101,-26.54977 10.26837,-39.49728 2.77923,-8.76086 7.0094,-17.19952 11.59051,-25.21051 4.27961,-7.48379 11.55982,-11.26517 20.3114,-9.69287 7.43634,1.33597 14.66736,3.81509 21.9892,5.78842 1.73694,1.017 3.47388,2.034 5.53308,3.13635 1.07318,0.70771 1.76142,1.43305 2.58594,1.93406 3.22204,1.95788 5.25207,4.56311 3.00671,8.21038 -2.1228,3.44806 -5.24066,2.86417 -8.64209,0.8295 -0.39611,-0.0754 -0.41333,-0.0452 -0.55676,-0.37051 -7.177,-3.1709 -14.00513,-6.84818 -21.29669,-8.64877 -8.85315,-2.18625 -11.81,-0.26587 -16.37903,7.52703 -6.99768,11.9354 -9.85132,25.26148 -13.26868,38.486 -3.2268,12.48751 -6.94207,24.98452 -11.96368,36.8327 -4.62402,10.91012 -12.95447,18.53445 -26.07343,18.34329 -1.73309,-0.32922 -3.46618,-0.65851 -5.89434,-1.17908 -5.11444,-2.09448 -9.83899,-3.49862 -13.90265,-5.98346 -23.07788,-14.11172 -41.61084,-33.06277 -53.91016,-56.97326 -26.81537,-52.13062 -47.54211,-106.56253 -57.73425,-164.60898 -4.32419,-24.62726 -7.69455,-49.32631 -6.74289,-74.43521 0.68493,-18.07152 4.26584,-35.61713 9.23718,-52.93009 0.12335,-0.13632 0.24674,-0.27264 0.64987,-0.93792 1.28903,-2.98992 2.24039,-5.47658 3.31699,-7.90778 8.30002,-18.74301 20.43527,-24.24647 39.78531,-17.96812 11.22443,3.6419 22.29693,7.80474 33.64612,10.99147 7.94067,2.22963 16.18255,4.01024 24.38257,4.53108 9.73712,0.61847 14.33319,-4.16654 15.45007,-13.7966 0.30536,-2.63355 0.49811,-5.28014 0.74249,-7.92076 0.56006,-0.50687 1.12018,-1.01373 1.84802,-1.75008 z"
   id="path17"
   style="display:inline" />























































<path
   fill="#3d372d"
   opacity="1"
   stroke="none"
   d="m 499.54336,285.90375 c -1.93917,-13.2927 -3.89309,-26.58328 -5.78967,-39.88207 -0.15283,-1.07165 0.0881,-2.19945 0.0891,-4.07301 0.14637,-15.91777 0.3498,-31.06371 0.5532,-46.20963 2.70999,-11.68264 5.41998,-23.36531 8.17056,-35.46862 0.64502,-0.36705 1.24942,-0.31347 2.15753,-0.25678 -4.6676,17.31607 -8.24851,34.86168 -8.93344,52.9332 -0.95166,25.1089 2.4187,49.80795 6.74289,74.43521 10.19214,58.04645 30.91888,112.47836 57.73425,164.60898 12.29932,23.91049 30.83228,42.86154 53.91016,56.97326 4.06366,2.48484 8.78821,3.88898 13.52618,5.98218 -0.341,1.33277 -1.00061,2.47559 -1.77429,3.9455 -1.01703,-0.75183 -1.70374,-2.36341 -2.8551,-2.83124 -22.77033,-9.25272 -38.82233,-26.53958 -53.60669,-45.15723 -5.03693,-6.34292 -8.82556,-13.67569 -13.21729,-20.53521 -0.32422,-0.50629 -0.91485,-0.84201 -1.9812,-1.43967 -3.80078,-7.75943 -7.00195,-15.33621 -10.26404,-23.28577 -0.46509,-1.62579 -0.84173,-2.88858 -1.27789,-4.1304 -3.46619,-9.86862 -10.63745,-17.83389 -12.435,-28.87124 -1.61633,-9.92435 -6.90374,-19.2508 -10.64929,-29.23368 -0.53314,-1.26446 -1.18256,-2.0874 -1.41626,-3.01507 -6.254,-24.823 -12.46521,-49.65677 -18.68369,-74.48871 z"
   id="path73"
   style="display:inline" />

















































<path
   fill="#3d372d"
   opacity="1"
   stroke="none"
   d="m 550.61114,130.97775 c 8.46943,2.72318 16.54883,5.44261 25.00983,8.20624 10.26367,4.05246 20.30493,7.36855 31.16681,7.09468 10.34009,-0.26071 15.30921,-7.24261 12.31342,-17.85681 0.98053,-0.70396 2.09167,-1.02702 3.55145,-1.3819 0.10419,2.60878 -0.0886,5.25537 -0.39392,7.88892 -1.11688,9.63006 -5.71295,14.41507 -15.45007,13.7966 -8.20002,-0.52084 -16.4419,-2.30145 -24.38257,-4.53108 -11.34919,-3.18673 -22.42169,-7.34957 -33.64612,-10.99147 -19.35004,-6.27835 -31.48529,-0.77489 -39.78531,17.96812 -1.0766,2.4312 -2.02796,4.91786 -3.23843,7.6434 -0.71711,-0.82037 -1.2331,-1.90533 -1.76294,-3.3898 1.28704,-2.839 2.63192,-5.25627 3.88061,-7.72221 3.54117,-6.99311 7.99945,-13.15358 15.3982,-17.1836 9.27313,-4.01532 18.12414,-2.28344 27.33904,0.45891 z"
   id="path123"
   style="display:inline" />
















<path
   fill="#3d372d"
   opacity="1"
   stroke="none"
   d="m 377.75296,241.2836 c -5.79294,-1.57948 -11.58588,-3.15895 -17.37884,-4.73842 0.15249,-0.5294 0.30496,-1.05881 0.45745,-1.58821 5.62494,1.75836 11.24988,3.51671 17.02207,5.65988 0.14724,0.38483 -0.10068,0.66675 -0.10068,0.66675 z"
   id="path140"
   style="display:inline" />




























































































<path
   fill="#3d372d"
   opacity="1"
   stroke="none"
   d="m 718.44605,423.99622 c -7.20142,-5.46891 -15.17792,-7.84324 -23.59803,-6.86213 -2.7171,0.31659 -5.6781,3.90561 -7.37134,6.69855 -6.73132,11.10318 -10.04956,23.49576 -12.5094,36.13599 -2.74346,14.09808 -6.20764,27.97436 -13.37091,40.59747 -5.39947,9.51495 -12.53778,16.83112 -24.52142,18.16473 -1.19714,-0.48571 -2.10773,-1.24554 -3.05914,-2.30468 13.07806,-0.10816 21.40851,-7.73249 26.03253,-18.64261 5.02161,-11.84818 8.73688,-24.34519 11.96368,-36.8327 3.41736,-13.22452 6.271,-26.5506 13.26868,-38.486 4.56903,-7.7929 7.52588,-9.71328 16.37903,-7.52703 7.29156,1.80059 14.11969,5.47787 21.30389,8.6325 -1.26397,0.33975 -2.67859,0.37043 -4.51757,0.42591 z"
   id="path233"
   style="display:inline" />







<path
   fill="#100e08"
   opacity="1"
   stroke="none"
   d="m 504.27014,641.43494 c 14.21796,-7.80677 28.98615,-14.78705 42.99451,-23.05463 13.41772,-7.91907 23.17865,-19.15125 29.82526,-33.88721 3.50268,-7.76574 4.89032,-14.79052 4.36071,-22.79425 -0.10638,-1.60834 0.34424,-3.25354 0.59436,-5.35522 7.20252,13.32818 4.30713,35.63055 -6.19726,48.57226 -2.20941,2.64197 -3.87049,5.01166 -6.03388,6.75977 -16.62628,13.43488 -35.005,23.96149 -54.57562,32.46686 -3.58337,-0.81458 -7.16672,-1.62915 -10.96808,-2.70758 z"
   id="path241"
   style="display:inline" />



<path
   fill="#15130c"
   opacity="1"
   stroke="none"
   d="m 525.92358,648.86768 c 15.19593,-8.55933 30.58661,-16.74091 45.87983,-25.10089 2.87878,-1.57367 5.36895,-3.85816 8.07483,-5.84131 3.50134,2.18121 1.57141,3.94403 -0.34272,5.24603 -10.2857,6.9967 -20.46228,14.18646 -31.07324,20.65906 -5.48657,3.34686 -11.79468,5.34692 -18.07629,8.06726 -1.66364,-0.8302 -2.98249,-1.77222 -4.46241,-3.03015 z"
   id="path245"
   style="display:inline" />
<path
   fill="#15130c"
   opacity="1"
   stroke="none"
   d="m 576.99786,606.99939 c 1.41596,0.004 2.83191,0.009 4.24787,0.0128 -0.52613,1.24969 -0.85419,2.63604 -1.60822,3.72827 -9.71838,14.07721 -24.80572,20.42706 -39.52875,27.25281 -6.31012,2.92541 -12.74127,5.5899 -19.39575,8.63324 -1.31024,-0.0615 -2.34222,-0.38324 -3.41736,-0.96772 10.87,-5.59832 21.99598,-10.54583 32.63538,-16.38055 10.34345,-5.67249 19.91113,-12.58862 27.06683,-22.27887 z"
   id="path246"
   style="display:inline" />

<path
   fill="#15130c"
   opacity="1"
   stroke="none"
   d="m 530.00031,654.94653 c 9.29565,-3.84906 18.5913,-7.69812 27.88702,-11.54718 0.21863,0.44776 0.43732,0.89551 0.65594,1.3432 -12.88891,8.01978 -27.1795,13.42108 -40.66632,20.89722 -1.32898,-0.94183 -2.53723,-2.23163 -3.4386,-3.94952 5.39191,-2.53333 10.47693,-4.63849 15.56196,-6.74372 z"
   id="path248"
   style="display:inline" />
<path
   fill="#100e08"
   opacity="1"
   stroke="none"
   d="m 396.46063,703.94098 c -0.4403,-0.39948 -0.60165,-0.66944 -1.14227,-0.91303 -0.0864,-0.36346 0.0642,-0.66821 0.8435,-1.02484 1.86774,-0.33136 3.1066,-0.61084 4.3455,-0.89032 1.03027,-0.16748 2.06051,-0.33496 3.67648,-0.71167 1.69494,-0.58191 2.8042,-0.95465 3.91342,-1.32739 0,0 -0.0692,-0.045 0.32288,0.0314 1.90332,-0.28015 3.41455,-0.63684 4.92581,-0.99347 0.67859,-0.0164 1.35717,-0.0328 2.74951,-0.11688 1.75549,-0.10535 2.79727,-0.14294 3.83902,-0.1806 -0.1239,2.31311 -5.52258,1.96649 -2.78208,6.03705 0.0831,0.35498 0.0704,0.31091 -0.25082,0.24072 -1.14941,0.0645 -1.97766,0.19922 -2.80588,0.33398 -0.77658,0.11774 -1.55319,0.23548 -2.81244,0.15137 -0.82794,-0.36389 -1.09219,-0.27216 -1.27545,0.0734 -4.37527,-0.22181 -8.75055,-0.44361 -13.54718,-0.70972 z"
   id="path249"
   style="display:inline" />

<path
   fill="#0b0c0a"
   opacity="1"
   stroke="none"
   d="m 477.92499,674.97705 c 4.90188,0.0427 9.81271,-0.0613 14.69928,0.23493 1.16903,0.0709 2.25726,1.47467 3.69003,2.48138 -7.80298,3.22131 -14.7085,1.96216 -21.63016,-1.15332 1.01502,-0.73834 2.12793,-1.15064 3.24085,-1.56299 z"
   id="path251"
   style="display:inline" />


<path
   fill="#3d372d"
   opacity="1"
   stroke="none"
   d="m 401.53937,685.86841 c 0,0 -0.29642,-0.0958 -0.7027,-0.0223 -0.94705,0.2373 -1.48782,0.40118 -2.02857,0.56518 -3.68106,1.0434 -7.36215,2.0868 -11.39157,3.24268 0.003,-0.47742 0.21995,-1.40533 0.72553,-1.60583 6.01355,-2.38483 12.0701,-4.66126 18.48221,-6.99958 0.93069,0.49738 1.49456,1.02826 2.22622,1.80109 -1.63299,0.89453 -3.43383,1.54706 -5.83917,2.32562 -0.89368,0.31506 -1.18283,0.50409 -1.47195,0.69318 z"
   id="path254"
   style="display:inline" />












<path
   fill="#3d372d"
   opacity="1"
   stroke="none"
   d="m 665.95148,433.0112 c 0.69885,-1.66589 1.39764,-3.33176 2.37945,-5.55304 0.45282,-1.17783 0.62268,-1.80029 0.79248,-2.42273 0,0 -0.0842,-0.003 0.17774,-0.14285 0.61139,-1.06027 0.96087,-1.98035 1.3103,-2.90042 2.37634,-3.79758 4.75262,-7.59519 7.48596,-11.79041 0.64704,-0.59823 0.80402,-0.87445 0.82801,-1.22629 0,0 0.0663,0.0193 0.34472,-0.13928 1.47254,-1.36764 2.66657,-2.57669 3.8606,-3.7857 0.50207,-0.23523 1.00403,-0.47046 2.01294,-0.97254 1.45672,-0.81955 2.40649,-1.37228 3.35626,-1.92502 0.97613,-0.19986 1.95227,-0.39972 3.57013,-0.72363 1.40265,-0.23379 2.16351,-0.34351 2.92444,-0.45322 1.90619,0.10797 3.81231,0.21592 6.41784,0.45362 1.65003,0.2218 2.60065,0.31384 3.55127,0.40588 1.6424,0.42862 3.28479,0.85724 5.57331,1.52554 2.88086,1.02463 5.11554,1.8096 7.35028,2.59458 1.03454,1.07889 2.06909,2.15774 3.12298,3.56384 -7.30249,-1.64606 -14.53351,-4.12518 -21.96985,-5.46115 -8.75158,-1.5723 -16.03179,2.20908 -20.3114,9.69287 -4.58111,8.01099 -8.81128,16.44965 -11.59051,25.21051 -4.10736,12.94751 -6.37018,26.47257 -10.26837,39.49728 -2.01709,6.73932 -5.49408,13.14026 -8.98499,19.31318 -3.78686,6.69613 -9.83588,9.13324 -17.34637,6.48285 1.58905,-0.68305 3.07928,-0.99179 4.94775,-1.33652 5.61346,0.0462 8.90649,-3.30142 10.92633,-7.30579 3.57611,-7.08987 7.08045,-14.35766 9.35162,-21.9299 3.19471,-10.65161 5.237,-21.64896 7.7721,-32.49844 0.22467,-0.72888 0.44934,-1.45774 0.89917,-2.76029 0.4284,-1.5191 0.63159,-2.46454 0.83478,-3.40997 0,0 0.0852,-0.2366 0.24524,-0.50775 0.25195,-0.67914 0.34387,-1.08719 0.43579,-1.49521 z"
   id="path267"
   style="display:inline" />
<path
   fill="#3d372d"
   opacity="1"
   stroke="none"
   d="m 633.9212,147.60284 c -1.19049,1.14821 -2.81781,1.6445 -3.60791,2.74298 -5.30261,7.37273 -12.01111,11.94013 -22.33587,11.52186 -7.12659,-0.64971 -13.37268,-1.31536 -19.8534,-2.19663 -0.85205,-0.31621 -1.4696,-0.41678 -2.37805,-0.63805 -0.71014,-0.1231 -1.12939,-0.12553 -1.80505,-0.42514 -7.49164,-2.70008 -14.72681,-5.10301 -22.30274,-7.6615 -8.11407,-2.47131 -15.8443,-4.94773 -23.67511,-7.04907 -5.68139,-1.52453 -10.53076,0.72425 -13.14373,5.64847 -3.30079,6.22032 -5.60254,12.97073 -8.66456,19.48506 -0.98773,-0.0224 -1.64611,-0.0374 -2.30456,-0.0523 3.13776,-7.24903 5.67041,-14.84741 9.59381,-21.64282 3.49695,-6.05681 9.78327,-7.79701 16.58362,-5.68913 12.19897,3.78131 24.35687,7.70001 36.48529,11.70247 10.13031,3.34305 20.29803,6.40483 31.13141,5.90393 13.40265,-0.61971 20.26568,-5.95441 24.49176,-19.03287 0.68976,2.14624 1.21264,4.57784 1.78509,7.38278 z"
   id="path268"
   style="display:inline" />

























<path
   fill="#100e08"
   opacity="1"
   stroke="none"
   d="m 490.52707,358.13922 c -5.03189,-10.07025 -9.7991,-19.9281 -14.78433,-30.03986 -1.51615,-3.08868 -2.81424,-5.92349 -4.26712,-9.09628 1.69381,-1.09933 3.17181,-2.05856 4.95446,-3.21554 1.03559,1.46655 1.96378,2.78097 3.34604,4.58715 10.98267,15.57148 21.51123,30.65122 32.1532,46.05936 6.15472,10.18088 12.28644,19.98956 15.30267,31.37766 -3.17651,-3.22959 -5.59832,-6.92191 -8.26117,-10.43137 -2.5263,-3.32956 -4.06604,-7.67807 -9.45959,-10.09421 12.17664,26.60221 23.79785,51.99088 35.41901,77.37955 0.474,-0.13104 0.948,-0.26212 1.42199,-0.39316 -0.48516,-6.05582 -0.97027,-12.1116 -1.38348,-18.43237 -0.0851,-0.77033 -0.242,-1.27564 -0.52576,-2.15045 -0.17474,-1.14627 -0.22277,-1.92307 -0.12445,-2.79413 0.0209,-0.35217 -0.10449,-0.61008 -0.3161,-1.26691 -0.0362,-1.4703 0.0139,-2.54169 0.064,-3.61307 3.20117,7.57682 6.40234,15.1536 9.86023,22.87333 4.68444,12.30172 7.85077,24.71484 7.24011,37.78286 -0.0982,2.09983 -1.21539,4.15204 -1.86157,6.22629 -0.612,-0.0152 -1.224,-0.0303 -1.836,-0.0455 -2.30304,-4.47473 -4.60608,-8.94946 -7.19031,-13.98514 -0.92548,-1.71695 -1.5697,-2.87295 -2.21399,-4.02893 -1.14184,-2.46619 -2.28369,-4.93237 -3.68219,-7.61612 -0.61475,-1.12878 -0.9729,-2.04001 -1.6159,-3.09225 -0.28486,-0.14096 -0.23072,-0.17978 -0.23072,-0.17978 -6.22717,-12.86081 -12.45434,-25.72162 -18.91992,-38.81711 -4.42548,-8.5701 -8.65918,-16.88263 -12.7789,-25.25128 -1.86575,-3.7901 -3.50507,-7.69162 -5.52118,-11.75858 -5.02417,-10.06793 -9.77426,-19.91986 -14.789,-29.98416 z"
   id="path294"
   style="display:inline" />

<path
   fill="#2c2717"
   opacity="1"
   stroke="none"
   d="m 570.69434,636.72241 c 1.21795,-0.37933 2.09143,-0.56824 2.96484,-0.75708 0.15094,0.37342 0.30182,0.74677 0.45276,1.12012 -2.3504,1.16058 -4.70087,2.32111 -7.05127,3.48163 -0.24249,-0.45673 -0.48505,-0.91345 -0.72754,-1.37018 1.33887,-0.76135 2.6778,-1.52271 4.36121,-2.47449 z"
   id="path296"
   style="display:inline" />
<path
   fill="#15130c"
   opacity="1"
   stroke="none"
   d="m 565.37292,641.37543 c -2.0567,1.11432 -4.1134,2.22857 -6.1701,3.34289 -0.26874,-0.46264 -0.53754,-0.92535 -0.80628,-1.388 1.7851,-1.02575 3.57026,-2.05157 5.93061,-2.80322 0.73205,0.46551 0.88891,0.65692 1.04577,0.84833 z"
   id="path297"
   style="display:inline" />


<path
   fill="#100e08"
   opacity="1"
   stroke="none"
   d="m 635.10828,502.95459 c -1.4903,0.30869 -2.98053,0.61743 -4.83631,1.03897 -0.36541,0.11282 -0.33386,0.0897 -0.38269,-0.21802 -0.68664,-0.24576 -1.32446,-0.18384 -1.96222,-0.12188 -0.19,-0.0339 -0.37994,-0.0677 -0.81128,-0.63578 -1.4378,-2.05716 -2.63415,-3.58004 -3.92456,-5.51196 -5.6524,-35.36993 -10.87921,-70.38834 -16.93304,-105.26321 -2.41052,-13.88681 -6.65033,-27.45612 -9.81287,-41.28086 0.0303,-0.73007 -0.18396,-1.34924 -0.36902,-2.25695 -0.42572,-1.19617 -0.88061,-2.10377 -1.33282,-3.13383 0.003,-0.12246 -0.19452,-0.26794 0.004,-0.49288 -0.0522,-0.73569 -0.30292,-1.24643 -0.46717,-2.11499 -4.06512,-13.55878 -8.21685,-26.75974 -12.36865,-39.9607 -0.6228,-3.03518 -1.24566,-6.0704 -1.54388,-9.56128 0.76074,-0.47604 1.19683,-0.49636 1.63299,-0.51666 0.14301,0.33978 0.28595,0.6796 0.66065,1.17618 2.66534,6.63244 5.09893,13.10812 7.91894,20.15597 5.30249,15.00461 10.21857,29.43698 15.21387,44.24878 5.32556,21.99802 11.28778,43.47406 15.62958,65.27289 4.9602,24.90396 8.47839,50.09515 12.56207,75.4165 0.0666,0.74991 0.1944,1.24479 0.46606,2.07233 0.3147,0.78424 0.48554,1.23581 0.65638,1.68738 z"
   id="path300"
   style="display:inline" />
<path
   fill="#3d372d"
   opacity="1"
   stroke="none"
   d="m 623.28522,497.91498 c 1.19641,1.52286 2.39276,3.04574 3.62512,4.89911 -11.02741,-2.93045 -19.22064,-10.54169 -27.52393,-17.94635 -19.69043,-17.55936 -32.50103,-39.71048 -42.76971,-63.65799 -15.08258,-35.17414 -29.40247,-70.6008 -38.10669,-108.00916 -6.07794,-26.12149 -10.62369,-52.49988 -12.17041,-79.31067 -1.19638,-20.73794 0.58856,-41.21966 6.75977,-61.55899 1.3233,0.34798 2.12353,0.97051 2.5274,1.62009 -0.6958,0.41075 -1.1543,0.75119 -1.27209,1.18426 -6.24604,22.96822 -6.55411,46.40027 -5.14557,69.91672 0.29199,4.87493 1.77295,9.67864 2.49585,14.69595 -0.12326,0.52811 -0.0364,0.87546 0.0184,1.49405 0.0415,0.4379 0.1149,0.60453 0.15277,1.1977 1.74469,10.78744 3.5249,21.14837 5.26208,31.91851 0.28431,2.18662 0.50324,3.99225 0.95655,5.73694 3.23449,12.44962 6.51672,24.88675 9.78375,37.32789 2.41882,7.70178 4.83765,15.40359 7.42877,23.41534 1.99799,5.3667 3.82355,10.42343 5.87878,16.15533 4.79889,11.78394 9.36811,22.89277 13.9668,34.35843 8.72742,19.80942 16.80042,39.60623 31.03491,55.97748 9.65027,11.09882 19.8302,21.61551 32.47535,29.37891 1.29827,0.79705 3.07006,0.82281 4.62213,1.20645 z"
   id="path301"
   style="display:inline" />
<path
   fill="#2c2717"
   opacity="1"
   stroke="none"
   d="m 516.02307,173.92396 c -0.80017,-0.62252 -1.6004,-1.24505 -2.71704,-1.90106 -0.16296,-0.8683 -0.01,-1.70311 0.34412,-2.79117 0.85852,-0.23828 1.5169,-0.22329 2.68286,0.10535 4.9267,6.09229 9.34582,11.87091 13.76501,17.64954 -0.55224,0.43974 -1.10449,0.87948 -1.65674,1.31923 -4.1394,-4.79396 -8.2788,-9.58792 -12.41821,-14.38189 z"
   id="path302"
   style="display:inline" />

<path
   fill="#12120f"
   opacity="1"
   stroke="none"
   d="m 426.92627,72.786987 c -9.44995,-4.453125 -18.57611,-8.828354 -28.05829,-13.254936 -0.35596,-0.05135 -0.42526,-0.05021 -0.62939,-0.229454 -0.54642,-0.226639 -0.88871,-0.274036 -1.23099,-0.321434 -9.0155,-3.143089 -18.03101,-6.286175 -27.4495,-9.432045 -10.20751,-1.427868 -20.01208,-2.852951 -30.17562,-4.173782 -12.61478,1.295944 -24.87058,2.487632 -37.29016,4.038826 -12.40116,2.865909 -24.63849,5.372318 -37.17942,8.129348 -6.62131,1.87595 -12.93901,3.501275 -19.82377,5.290284 -0.9059,0.160339 -1.1917,0.281814 -1.42444,0.528106 0,0 -0.0629,-0.0092 -0.0943,-0.0044 -8.02118,2.423439 -16.01093,4.842064 -24.28496,7.49041 -13.08491,6.166229 -23.46405,15.277405 -33.25858,25.60775 -6.14134,7.13971 -12.28921,13.87172 -18.17926,20.82224 -9.15655,10.80513 -18.1377,21.75888 -27.52024,32.75509 -0.19422,-1.2301 -0.51946,-2.87474 0.14135,-3.85402 7.74779,-11.48191 15.64992,-22.8596 23.49332,-34.27718 1.11931,-1.62938 2.14337,-3.32421 3.4538,-5.46115 -0.13674,-0.63903 -0.51577,-0.80566 -0.89478,-0.9723 -7.74937,2.14686 -15.49876,4.29372 -23.4857,6.67492 -2.28729,1.14853 -4.33702,2.06269 -6.38675,2.97686 -0.31899,-0.51604 -0.63799,-1.03209 -0.95699,-1.54814 6.26377,-4.07644 12.52755,-8.1529 19.04927,-12.46428 7.23473,-2.144052 14.24213,-3.951593 21.16517,-6.039003 1.58342,-0.477432 2.99739,-1.784836 4.28184,-2.940811 6.50853,-5.857475 12.94867,-11.790932 19.61324,-17.974007 12.50995,-8.226509 25.65271,-14.370014 39.98954,-18.74282 9.01293,-2.225972 17.75881,-4.212483 27.187,-6.301278 1.05753,-0.279113 1.43277,-0.45594 1.80805,-0.632774 1.9147,-0.200935 3.8294,-0.401863 6.07989,-0.751118 11.34702,-1.940857 22.35828,-3.73339 33.75397,-5.668544 6.53201,-1.274643 12.64938,-2.630463 18.83691,-3.466965 4.83725,-0.653954 9.7616,-0.663658 15.11102,-1.003532 11.52793,2.109565 22.59211,4.26305 34.04578,6.394386 8.4176,3.001758 16.44577,6.025661 25.0907,9.35432 1.76077,0.696598 2.90469,1.088444 4.04865,1.48029 0,-4e-6 0.33535,0.305313 0.56097,0.328243 9.4281,5.090141 18.63061,10.157352 28.39972,15.580372 5.39505,3.428421 10.22351,6.501037 15.05197,9.573646 0,0 0.0646,-0.109367 0.12601,0.143914 0.39792,0.388626 0.73443,0.523979 1.07095,0.659324 0,-7e-6 0.014,-0.08078 0.12717,0.215958 0.99435,0.833649 1.87552,1.370552 2.75668,1.907455 0,0 0.0363,-0.1082 0.0959,0.14885 0.39096,0.386131 0.72235,0.515213 1.05377,0.644287 0.76248,0.629715 1.52496,1.25943 2.69049,2.191727 0.71426,0.440384 1.02551,0.578171 1.33673,0.715957 0,0 -0.008,0.0694 0.16556,0.314186 0.68756,0.523674 1.20138,0.802567 1.71524,1.081444 0.0688,0.789093 0.13769,1.578186 0.27801,3.186356 -2.44354,-1.361015 -4.34945,-2.422569 -6.59579,-3.542908 -9.33896,-5.072456 -18.33746,-10.086105 -27.6597,-15.177643 z"
   id="path304"
   style="display:inline" />

<path
   fill="#15130c"
   opacity="1"
   stroke="none"
   d="m 455.85132,268.63123 c 2.20929,6.94836 4.41855,13.89675 6.87067,21.11145 1.42068,3.32724 2.9479,6.31259 3.63287,9.48007 0.35693,1.65045 -0.77072,3.62198 -1.22782,5.44845 -1.45852,-1.11728 -3.11819,-2.05822 -4.30566,-3.41305 -0.80719,-0.92093 -0.95261,-2.42191 -1.62363,-3.95255 -6.63223,-14.85437 -13.03479,-29.41964 -19.72314,-44.16879 -6.5455,-9.31129 -12.80521,-18.43874 -19.25235,-27.84999 -5.18658,-6.40828 -10.18576,-12.53273 -15.33057,-18.97118 0.71979,-0.36891 1.92502,-0.82144 2.39807,-0.4172 4.7154,4.02957 9.31003,8.20047 14.36185,12.79727 6.65573,7.89641 12.88834,15.32701 20.07001,23.88914 -5.06784,-11.40503 -12.086,-19.63301 -19.79138,-27.37205 -2.91635,-3.18758 -5.89252,-6.3244 -8.68585,-9.61636 -0.42805,-0.50446 -0.0128,-1.72449 0.55645,-2.34536 2.0109,0.77268 3.47772,1.27715 4.94455,1.78163 0.52826,1.22524 1.05655,2.45047 1.94394,4.11029 0.64523,0.65294 0.93134,0.87131 1.21741,1.08968 -9e-5,0.319 0.13208,0.5677 0.69549,1.08093 0.60529,0.54126 0.91156,0.7477 1.21784,0.95415 0,0 0.0295,-0.14412 0.036,0.13141 0.17917,0.55899 0.43063,0.71712 0.76099,0.74991 0.53002,0.66864 1.06005,1.33729 1.99496,2.45958 5.29422,5.6907 10.18353,10.92775 15.07284,16.16481 0.44004,-0.28113 0.88004,-0.56226 1.32007,-0.8434 -4.28387,-6.44254 -8.56775,-12.88507 -12.85162,-19.32761 -1.03427,-1.66435 -2.06851,-3.32872 -3.1969,-5.31456 1.51987,0.60703 3.49921,1.20569 4.68594,2.52001 5.7569,6.37579 11.30127,12.94352 17.45713,19.17053 -1.10175,-7.78609 -6.68363,-13.2356 -10.97245,-19.36176 0.3079,-0.36796 0.61576,-0.73593 0.92362,-1.10389 1.8331,1.45889 3.81018,2.77302 5.46121,4.41499 1.87357,1.86331 3.45535,4.01997 5.83505,5.52159 -0.35809,-6.0813 -4.88415,-9.58404 -7.37008,-14.86278 2.84146,2.18021 5.68289,4.36042 8.52435,6.54062 0.36935,-0.28734 0.73871,-0.57469 1.10806,-0.86204 -2.14303,-3.07279 -4.28607,-6.14556 -6.42911,-9.21833 0.20209,-0.23674 0.40418,-0.47346 0.60627,-0.7102 3.00128,2.43854 6.00253,4.87706 9.00378,7.3156 0.46787,-0.35894 0.93573,-0.71788 1.40357,-1.07682 -1.09925,-1.94889 -2.19849,-3.89779 -3.24143,-6.21479 0.0563,-0.36808 0.0795,-0.3863 0.0795,-0.3863 0.62201,0.0575 1.24405,0.11499 2.18845,0.28116 0.32241,0.10869 0.36795,0.0965 0.51934,0.32523 0.48059,0.3697 0.80976,0.51065 1.13892,0.65161 0,0 0.002,-0.21184 0.16913,0.17693 1.59952,-1.16607 3.03238,-2.72089 4.46524,-4.27572 3.55118,-0.44297 3.38351,1.49656 2.52463,3.91347 -2.6547,7.47014 -4.99567,15.06873 -8.00901,22.39084 -5.82562,14.15576 -6.00122,28.53397 -2.39849,43.51473 0.23953,0.32653 0.17004,0.71933 0.26718,1.24209 0.38278,1.16071 0.66842,1.79862 0.9541,2.43656 z"
   id="path306"
   style="display:inline" />
<path
   fill="#15130c"
   opacity="1"
   stroke="none"
   d="m 473.39301,159.8179 c -6.08164,-11.74257 -15.86561,-19.62359 -26.35645,-26.53345 2.36133,-4.25837 5.00299,-3.48368 7.65045,-1.9922 9.27509,5.22536 16.26804,12.5636 20.79205,22.59718 0.42447,0.74401 0.56315,1.30089 1.02295,2.37888 0.66214,1.12856 1.00315,1.73601 1.34418,2.34344 0.62702,3.38822 1.25406,6.77643 1.88107,10.16465 -0.18444,0.10777 -0.36889,0.21553 -0.55334,0.32329 -0.95416,-1.53382 -1.9083,-3.06763 -3.10019,-5.10763 -0.48706,-0.71813 -0.73642,-0.93011 -0.98578,-1.14207 0,0 -0.0244,0.0917 -0.0212,-0.20554 -0.35351,-0.74992 -0.71023,-1.20263 -1.06695,-1.65535 -0.12455,-0.34056 -0.24909,-0.68113 -0.60675,-1.1712 z"
   id="path307"
   style="display:inline" />






<path
   fill="#15130c"
   opacity="1"
   stroke="none"
   d="m 499.2597,119.64139 c -6.9407,-11.24343 -13.87689,-22.481989 -20.86908,-33.685618 -0.90039,-1.442718 -3.38974,-3.043251 1.1933,-2.945518 6.83957,8.666344 13.29114,17.259086 20.01389,26.077716 1.68603,4.10922 3.25632,7.94632 4.43286,11.90057 0.42126,1.41576 1.07404,4.34115 -2.68588,1.9063 -0.62049,-0.96354 -0.97385,-1.44605 -1.32721,-1.92855 0,0 -0.0226,0.029 -0.0343,-0.24716 -0.25892,-0.52598 -0.5062,-0.77575 -0.75345,-1.02554 0,0 0.0171,-0.0365 0.0299,-0.0522 z"
   id="path314"
   style="display:inline" />


<path
   fill="#2c2717"
   opacity="1"
   stroke="none"
   d="m 418.70465,204.66818 c -1.42609,-0.13995 -2.89291,-0.64442 -4.54065,-1.4333 -0.47583,-2.53751 -0.22748,-5.05179 -1.16275,-6.99704 -3.45752,-7.19161 -7.33032,-14.18274 -10.98382,-21.28176 -0.61454,-1.19407 -0.91602,-2.54922 -1.36216,-3.82994 0.57969,-0.30589 1.1594,-0.61178 1.73911,-0.91769 2.86978,4.82893 5.73956,9.65787 8.80987,14.74501 0.20053,0.25821 0.30024,0.73595 0.52134,1.24316 0.86416,1.77433 1.50723,3.04142 2.15033,4.30852 1.596,4.5995 3.19201,9.19901 4.82873,14.16304 z"
   id="path317"
   style="display:inline" />
<path
   fill="#2c2717"
   opacity="1"
   stroke="none"
   d="m 392.17602,170.41818 c 1.04331,-0.22134 2.47379,-0.42286 2.72153,0.0269 4.05063,7.35539 7.95188,14.79306 11.88672,22.2122 -0.72345,0.3982 -1.44693,0.79639 -2.17038,1.19457 -4.20032,-7.7036 -8.40066,-15.40721 -12.43787,-23.43372 z"
   id="path318"
   style="display:inline" />

<path
   fill="#2c2717"
   opacity="1"
   stroke="none"
   d="m 380.39087,174.97688 c -1.1004,-1.79759 -2.09247,-3.33265 -2.651,-5.0119 -0.14881,-0.44737 1.03085,-1.33652 1.87665,-1.96178 2.38415,4.00179 4.49231,7.94249 6.60046,11.8832 -0.60654,0.36657 -1.21307,0.73317 -1.81961,1.09974 -1.24521,-1.93359 -2.49045,-3.86717 -4.0065,-6.00926 z"
   id="path320"
   style="display:inline" />
<path
   fill="#2c2717"
   opacity="1"
   stroke="none"
   d="m 415.99994,187.00009 c -0.45859,-1.26208 -0.91715,-2.52417 -1.64087,-3.99837 -1.72165,-3.53233 -3.17819,-6.85255 -4.63477,-10.17277 0.43711,-0.26785 0.87421,-0.53572 1.31131,-0.80358 1.11463,1.25268 2.22925,2.50535 3.61567,3.96474 0.99209,3.22472 1.7124,6.24269 2.42547,9.94736 -0.36377,0.812 -0.72027,0.93732 -1.07681,1.06262 z"
   id="path321"
   style="display:inline" />
<path
   fill="#2c2717"
   opacity="1"
   stroke="none"
   d="m 394.04956,180.11053 c 0.53494,1.70041 0.9137,3.05722 1.29248,4.41404 -0.33768,0.14306 -0.67532,0.28614 -1.013,0.42921 -2.82892,-4.67975 -5.65784,-9.35951 -8.48676,-14.03928 0.53107,-0.34507 1.06214,-0.69015 1.59321,-1.03523 2.15261,3.29589 4.30526,6.59177 6.61407,10.23126 z"
   id="path322"
   style="display:inline" />
<path
   fill="#3d372d"
   opacity="1"
   stroke="none"
   d="m 372.19977,173.36212 c -0.11896,-0.7577 -0.23795,-1.51538 -0.3569,-2.27307 0.47369,-0.29155 0.94735,-0.58311 1.42105,-0.87466 1.57562,2.36996 3.15124,4.73992 4.85534,7.44366 0.12851,1.11282 0.12851,1.89191 0.12851,3.38904 -1.09317,-1.28256 -1.83575,-2.15382 -2.83896,-3.20128 -0.7391,-0.95387 -1.21756,-1.73152 -2.02734,-2.98058 -0.61478,-0.81529 -0.89826,-1.15921 -1.1817,-1.50311 z"
   id="path323"
   style="display:inline" />
<path
   fill="#2c2717"
   opacity="1"
   stroke="none"
   d="m 330.43414,181.78029 c -7.15344,-0.8705 -13.87561,-1.79389 -21.01697,-2.67778 -1.9523,-0.21428 -3.48538,-0.46803 -5.64657,-0.80753 -1.3291,-0.11589 -2.03009,-0.14604 -2.73111,-0.17618 -0.82779,-0.69545 -1.65558,-1.39091 -3.55692,-2.98832 5.08527,0.30386 8.89457,0.53149 13.11368,0.69356 9.71753,1.52513 19.0253,3.11586 28.7294,4.75289 1.28797,2.88303 -0.35348,2.59465 -2.20562,2.21944 -2.07206,-0.4198 -4.16871,-0.71789 -6.68589,-1.01608 z"
   id="path324"
   style="display:inline" />



<path
   fill="#15130c"
   opacity="1"
   stroke="none"
   d="m 473.50357,86.299202 c 5.58719,7.033302 10.88519,13.875088 16.18317,20.716868 -0.51862,0.45372 -1.03723,0.90744 -1.55588,1.36116 -2.80637,-2.75922 -5.61273,-5.51843 -8.73798,-8.421892 -8.07638,-8.447579 -15.83392,-16.750893 -24.07794,-25.462777 -7.07742,-5.145301 -13.66836,-9.882026 -20.25931,-14.618755 -6.16458,-3.969963 -12.32916,-7.93993 -18.62027,-11.991383 2.30808,-3.283092 5.1489,-3.266586 7.956,-1.641471 6.02353,3.487175 11.91015,7.210804 18.16858,10.985023 10.42865,9.725494 20.54156,19.303604 30.94363,29.073227 z"
   id="path328"
   style="display:inline" />







<path
   fill="#2c2717"
   opacity="1"
   stroke="none"
   d="m 425.99957,190.02896 c -3.13891,-5.90279 -6.83475,-11.60608 -7.10217,-18.53744 0.42697,-0.18967 0.85394,-0.37934 1.28091,-0.56899 2.13779,4.83975 4.27555,9.67951 6.63178,15.17412 0.31293,1.38562 0.40741,2.11636 0.50192,2.84712 -0.0767,0.16821 -0.15335,0.33644 -0.52591,0.79378 -0.29587,0.28908 -0.78653,0.29141 -0.78653,0.29141 z"
   id="path336"
   style="display:inline" />






























<path
   fill="#100e08"
   opacity="1"
   stroke="none"
   d="m 656.1676,432.67325 c 0.59693,3.18463 1.04425,6.05014 1.49158,8.91568 -0.26532,0.17764 -0.5307,0.35528 -0.79608,0.53293 -0.62445,-0.85022 -1.53168,-1.6113 -1.83203,-2.56372 -8.05231,-25.53559 -15.94867,-51.12079 -24.09308,-76.62677 -2.90637,-9.1019 -6.42389,-18.00763 -9.56928,-27.03534 -0.47711,-1.36939 -0.44574,-2.91596 -0.9104,-5.05887 -3.92492,-10.03528 -7.58899,-19.3923 -11.27838,-29.11746 -0.3772,-0.99878 -0.72919,-1.62946 -1.04126,-2.48224 -0.16552,-0.60843 -0.37103,-0.99472 -0.57648,-1.38102 -0.83355,-2.10226 -1.83612,-4.26474 2.03705,-4.73553 3.39991,5.57468 6.47486,11.07895 9.82819,16.78223 4.79816,10.12988 9.31793,20.06082 14.09698,30.2557 0.57776,1.29035 0.89618,2.31671 1.40552,3.91355 0.43018,0.89291 0.66944,1.21542 0.90875,1.53793 0,0 -0.0978,0.19721 -0.0335,0.65897 0.72436,2.07986 1.38439,3.69797 2.04437,5.31607 0.54956,1.96228 1.09912,3.92459 1.85766,6.5289 0.83191,2.28048 1.4549,3.91897 2.07788,5.55743 0.0193,0.60205 0.0386,1.20407 0.17548,2.40061 0.38178,1.16473 0.64581,1.73498 0.90991,2.3052 0,0 -0.0816,0.34656 0.003,0.82654 0.41119,1.3067 0.73767,2.13345 1.06421,2.96018 0.34552,1.72717 0.69104,3.45434 1.14489,5.76931 0.11097,0.96704 0.29224,1.21631 0.65229,1.3356 0,0 -0.009,-0.13574 -0.076,0.30881 0.3576,1.95392 0.7821,3.46326 1.2066,4.9726 0,0 -0.14484,0.20657 -0.11102,0.71179 0.3952,1.77701 0.75659,3.0488 1.11792,4.32059 0.006,0.61691 0.011,1.23385 0.0914,2.48849 0.35919,1.49719 0.64343,2.35666 0.92767,3.2161 -0.004,0.3952 -0.008,0.79037 0.0705,1.81079 0.3598,1.50747 0.63721,2.38977 0.91461,3.27203 0,0 -0.12457,0.33588 -0.0831,0.76041 0.18646,0.96649 0.33148,1.50845 0.4765,2.05044 0,0 -0.0656,0.43167 0.0437,1.05313 0.93415,4.43363 1.75904,8.24573 2.58393,12.05786 0.36029,2.00589 0.72064,4.01182 1.1734,6.6905 0.33136,1.23138 0.57037,1.79003 0.80932,2.34869 0.0519,0.69305 0.10395,1.38611 0.25403,2.68872 0.3017,0.92624 0.50531,1.24289 0.70886,1.55954 0.0582,0.92484 0.11652,1.8497 0.32422,3.09363 z"
   id="path367"
   style="display:inline" />
























<path
   fill="#2c2717"
   opacity="1"
   stroke="none"
   d="m 567.69238,260.87402 c -4.51428,-9.77032 -8.79614,-19.49765 -13.078,-29.22499 0.58612,-0.28966 1.17224,-0.5793 1.75842,-0.86896 2.61274,5.30018 5.22547,10.60033 8.13275,16.09359 0.59284,0.61241 0.89106,1.03175 1.06147,1.79837 -0.002,0.74286 0.12408,1.13842 0.25006,1.53401 0,0 0.0421,-0.12338 0.0235,0.2336 0.33929,1.19252 0.69726,2.02806 1.05523,2.86361 0.60157,2.48146 1.20691,4.96201 1.78809,7.44824 0.0195,0.0835 -0.1911,0.29068 -0.32135,0.31968 -0.12811,0.0285 -0.29047,-0.0965 -0.67017,-0.19715 z"
   id="path392"
   style="display:inline" />



















<path
   fill="#2c2717"
   opacity="1"
   stroke="none"
   d="m 539.79407,206.01874 c -1.74738,-3.39234 -3.26722,-6.56297 -4.78705,-9.73363 0.46344,-0.39502 0.92682,-0.79004 1.3902,-1.18507 0.59045,1.05563 1.1809,2.11126 2.02429,3.36351 2.35962,4.01368 4.46625,7.83076 6.57294,11.64784 -0.4914,0.29823 -0.98279,0.59646 -1.47419,0.8947 -1.1662,-1.58855 -2.33233,-3.17711 -3.72619,-4.98735 z"
   id="path412"
   style="display:inline" />
</svg>
